<svg height="414" viewBox="0 0 960 388.125" width="1024" xmlns="http://www.w3.org/2000/svg">
  <g fill="#fff">
    <path
      d="M570.062 153.354c-5.105 0-9.382 2.346-12.852 7.023-3.45 4.68-5.186 11.25-5.186 19.705 0 8.473 1.649 14.96 4.953 19.48 3.298 4.534 7.632 6.792 13.007 6.792 5.373 0 9.737-2.286 13.09-6.874 3.351-4.57 5.031-11.114 5.031-19.632 0-8.512-1.735-15.063-5.193-19.638q-5.182-6.856-12.85-6.856m-.078 84.112c-14.948 0-27.138-4.891-36.56-14.674q-14.114-14.686-14.115-42.858c0-18.793 4.76-33.021 14.28-42.71 9.524-9.676 21.817-14.519 36.876-14.519 15.056 0 27.217 4.755 36.468 14.293 9.267 9.519 13.893 23.95 13.893 43.25 0 19.314-4.733 33.68-14.208 43.107-9.476 9.408-21.678 14.111-36.634 14.111m95.58-83.006v47.742c0 2.23.164 3.635.484 4.224.317.587 1.277.881 2.869.881 5.858 0 10.296-2.188 13.33-6.552 3.042-4.358 4.546-11.615 4.546-21.78 0-10.168-1.574-16.793-4.701-19.87-3.143-3.087-8.121-4.645-14.931-4.645zm-30.644 74.073v-95.765c0-2.662.662-4.763 1.998-6.321 1.327-1.534 3.055-2.313 5.19-2.313h26.656c16.916 0 29.765 4.267 38.536 12.78 8.787 8.512 13.18 21.913 13.18 40.22 0 39.162-16.713 58.74-50.128 58.74h-27.29c-5.423 0-8.142-2.442-8.142-7.341m146.843-75.179c-5.106 0-9.394 2.346-12.858 7.023q-5.177 7.021-5.178 19.705c0 8.473 1.653 14.96 4.947 19.48 3.294 4.534 7.632 6.792 13.007 6.792 5.374 0 9.742-2.286 13.09-6.874q5.031-6.855 5.033-19.632c0-8.512-1.732-15.063-5.19-19.638-3.46-4.57-7.738-6.856-12.85-6.856m-.083 84.112q-22.43 0-36.548-14.674-14.13-14.686-14.129-42.858c0-18.793 4.76-33.021 14.28-42.71 9.53-9.676 21.817-14.519 36.88-14.519 15.06 0 27.211 4.755 36.473 14.293 9.26 9.519 13.887 23.95 13.887 43.25 0 19.314-4.735 33.68-14.21 43.107-9.47 9.408-21.684 14.111-36.633 14.111m110.333-4.136c0 2.115-5.26 3.188-15.8 3.188-10.53 0-15.807-1.073-15.807-3.188v-80.137h-19.15c-1.811 0-3.09-2.441-3.832-7.349a53 53 0 0 1-.472-7.178c0-2.437.153-4.838.472-7.178.743-4.894 2.02-7.354 3.832-7.354h69.435c1.808 0 3.08 2.46 3.834 7.354.313 2.34.474 4.74.474 7.178 0 2.452-.161 4.843-.474 7.178-.753 4.908-2.026 7.35-3.834 7.35h-18.678zm-400.932-56.722c-8.593-.133-18.428 1.658-18.428 1.658v16.772h9.89l-.11 7.477c0 2.77-2.746 4.16-8.222 4.16-5.483 0-10.325-2.321-14.525-6.951-4.21-4.636-6.305-11.413-6.305-20.342 0-8.948 2.046-15.545 6.143-19.802 4.09-4.253 9.449-6.386 16.042-6.386 2.77 0 5.637.446 8.618 1.358 2.983.904 4.975 1.75 5.992 2.544 1.008.815 1.967 1.201 2.873 1.201.902 0 2.362-1.054 4.383-3.188 2.023-2.128 3.835-5.352 5.434-9.652 1.592-4.322 2.39-7.634 2.39-9.984 0-2.332-.051-3.94-.154-4.787q-3.353-3.667-12.378-5.828c-6.006-1.438-12.74-2.152-20.19-2.152-16.391 0-29.209 5.16-38.465 15.481-9.264 10.325-13.887 23.728-13.887 40.226q0 29.054 14.196 44.058c9.481 10 21.929 14.996 37.36 14.996 8.3 0 15.666-.714 22.101-2.152 6.443-1.432 10.725-2.902 12.856-4.39l.64-49.95c0-2.903-7.661-4.22-16.254-4.367M457.434 302.81c-.883 1.81-2.504 3.469-4.875 4.971q-3.554 2.265-9.038 2.263c-4.824 0-8.702-1.521-11.65-4.595q-4.402-4.576-4.405-13.18v-14.303c0-5.612 1.386-9.915 4.165-12.92 2.775-2.98 6.49-4.49 11.13-4.49 4.536 0 8.051 1.193 10.54 3.552 2.481 2.368 3.785 5.677 3.898 9.901l-.063.187h-3.702c-.133-3.237-1.073-5.735-2.842-7.5-1.758-1.75-4.375-2.635-7.83-2.635-3.497 0-6.267 1.184-8.295 3.558-2.02 2.367-3.028 5.8-3.028 10.311v14.384q0 7.015 3.266 10.699c2.178 2.437 5.113 3.659 8.818 3.659 2.703 0 4.878-.48 6.506-1.462q2.446-1.448 3.405-3.548v-12.528h-9.982v-3.482h13.982zm18.335 3.658c2.196 0 4.151-.623 5.858-1.889 1.712-1.272 2.91-2.88 3.622-4.837v-7.732h-6.35q-4.054 0-6.484 2.295c-1.623 1.519-2.425 3.418-2.425 5.675 0 1.909.501 3.475 1.517 4.683 1.015 1.211 2.435 1.805 4.263 1.805m10.071 2.884a94 94 0 0 1-.45-3.032c-.095-.8-.142-1.598-.142-2.408a14 14 0 0 1-4.213 4.396q-2.59 1.737-5.762 1.735c-2.958 0-5.233-.915-6.843-2.75-1.6-1.843-2.409-4.325-2.409-7.46 0-3.313 1.163-5.97 3.497-7.943 2.331-1.972 5.5-2.957 9.485-2.957h6.245v-4.391c0-2.525-.645-4.515-1.91-5.953-1.293-1.42-3.068-2.137-5.36-2.137-2.133 0-3.892.676-5.27 2.05-1.377 1.363-2.059 3.03-2.059 5.017l-3.709-.032-.065-.194c-.105-2.695.915-5.078 3.065-7.188 2.143-2.106 4.89-3.152 8.235-3.152 3.306 0 5.966 1.006 7.999 3.009q3.031 3.033 3.034 8.658v17.525c0 1.278.06 2.518.171 3.7.115 1.2.3 2.355.59 3.507zm15.822-35.734.34 5.546c.937-1.985 2.196-3.515 3.756-4.602q2.349-1.61 5.522-1.61c2.159 0 3.979.628 5.446 1.9 1.47 1.267 2.552 3.183 3.24 5.76.882-2.378 2.128-4.257 3.747-5.618 1.618-1.363 3.582-2.041 5.857-2.041q4.704 0 7.29 3.806c1.73 2.544 2.593 6.445 2.593 11.717v20.875h-3.992v-20.943c0-4.384-.606-7.47-1.785-9.244-1.187-1.777-2.887-2.672-5.087-2.672-2.314 0-4.121.977-5.42 2.962-1.292 1.987-2.09 4.47-2.38 7.469v22.428h-3.971v-20.92c0-4.28-.6-7.345-1.827-9.173-1.22-1.83-2.92-2.738-5.102-2.738-2.085 0-3.773.636-5.036 1.898q-1.907 1.902-2.725 5.206v25.727h-3.968v-35.733zm57.616 2.832q-3.729.002-6.128 3.397c-1.602 2.27-2.429 5.068-2.496 8.403h16.486v-1.53c0-2.95-.692-5.405-2.077-7.352-1.394-1.95-3.319-2.918-5.785-2.918m.561 33.593q-5.779-.001-9.451-4.345-3.662-4.333-3.663-11.085v-5.934c0-4.51 1.225-8.271 3.678-11.261 2.458-2.975 5.412-4.465 8.875-4.465 3.743 0 6.643 1.327 8.715 3.991q3.112 4.003 3.111 10.75v3.92h-20.45v2.971q.003 5.19 2.478 8.639c1.65 2.305 3.894 3.448 6.707 3.448 1.954 0 3.655-.345 5.072-1.025a10.45 10.45 0 0 0 3.645-2.943l1.625 2.81c-1.08 1.369-2.477 2.475-4.183 3.295-1.703.815-3.76 1.234-6.159 1.234m43.51-33.593q-3.738.002-6.137 3.397c-1.592 2.27-2.42 5.068-2.492 8.403h16.489v-1.53c0-2.95-.69-5.405-2.084-7.352-1.387-1.95-3.31-2.918-5.775-2.918m.556 33.593q-5.78-.001-9.442-4.345-3.675-4.333-3.675-11.085v-5.934c0-4.51 1.23-8.271 3.678-11.261 2.466-2.975 5.42-4.465 8.883-4.465 3.736 0 6.649 1.327 8.714 3.991q3.105 4.003 3.106 10.75v3.92h-20.45v2.971q0 5.19 2.488 8.639c1.642 2.305 3.877 3.448 6.7 3.448 1.96 0 3.653-.345 5.067-1.025a10.55 10.55 0 0 0 3.66-2.943l1.613 2.81c-1.079 1.369-2.474 2.475-4.183 3.295-1.702.815-3.757 1.234-6.159 1.234m21.74-36.425.324 5.906c.953-2.096 2.212-3.724 3.792-4.856 1.567-1.138 3.412-1.715 5.533-1.715q4.789-.003 7.338 3.554c1.715 2.367 2.565 6.05 2.565 11.043v21.801h-3.994v-21.763c0-4.084-.597-6.935-1.787-8.589-1.182-1.655-2.92-2.479-5.182-2.479-2.028 0-3.73.659-5.093 2-1.37 1.326-2.392 3.095-3.072 5.325v25.506h-3.965v-35.733zm31.19 20.995c0 3.626.687 6.511 2.08 8.657 1.377 2.165 3.474 3.234 6.272 3.234 1.916 0 3.531-.51 4.856-1.556 1.32-1.046 2.364-2.503 3.136-4.35v-17.7c-.742-1.904-1.762-3.443-3.05-4.628q-1.933-1.748-4.875-1.75c-2.792 0-4.902 1.217-6.305 3.658-1.412 2.446-2.116 5.635-2.116 9.552zm-4.007-4.883c0-5.065 1.023-9.132 3.079-12.197 2.037-3.05 4.875-4.58 8.487-4.58 2.007 0 3.768.49 5.272 1.471 1.507.963 2.752 2.373 3.752 4.165l.388-4.971h3.366v35.766q.002 6.871-3.195 10.64c-2.138 2.5-5.171 3.768-9.088 3.768-1.408 0-2.923-.222-4.542-.65-1.621-.428-3.056-.99-4.315-1.697l1.097-3.481a13.3 13.3 0 0 0 3.603 1.613 14.3 14.3 0 0 0 4.091.58c2.84 0 4.946-.913 6.306-2.732 1.365-1.843 2.05-4.51 2.05-8.041v-4.321q-1.521 2.415-3.732 3.695c-1.47.857-3.187 1.285-5.122 1.285q-5.387 0-8.437-4.215c-2.038-2.805-3.06-6.548-3.06-11.215zm37.699 19.622h-4v-35.734h4zm0-45.908h-4v-5.63h4zm12.914 10.174.325 5.906c.956-2.096 2.208-3.724 3.786-4.856 1.576-1.138 3.425-1.715 5.537-1.715 3.192 0 5.648 1.181 7.35 3.554 1.713 2.367 2.554 6.05 2.554 11.043v21.801h-3.994v-21.763c0-4.084-.596-6.935-1.782-8.589-1.193-1.655-2.918-2.479-5.186-2.479-2.028 0-3.725.659-5.088 2-1.367 1.326-2.392 3.095-3.07 5.325v25.506h-3.971v-35.733zm39.443 2.832q-3.74.002-6.127 3.397c-1.597 2.27-2.429 5.068-2.5 8.403h16.487v-1.53c0-2.95-.687-5.405-2.077-7.352-1.388-1.95-3.313-2.918-5.783-2.918m.566 33.593q-5.792-.001-9.445-4.345-3.668-4.333-3.668-11.085v-5.934c0-4.51 1.222-8.271 3.675-11.261q3.688-4.464 8.872-4.465c3.741 0 6.654 1.327 8.725 3.991q3.103 4.003 3.104 10.75v3.92h-20.456v2.971c0 3.46.833 6.34 2.483 8.639 1.65 2.305 3.887 3.448 6.71 3.448 1.954 0 3.647-.345 5.06-1.025a10.5 10.5 0 0 0 3.662-2.943l1.622 2.81c-1.087 1.369-2.481 2.475-4.187 3.295-1.7.815-3.758 1.234-6.157 1.234M170.539 45.892c-14.398 3.2-28.642 7.658-41.995 14.379.305 11.791 1.067 23.089 2.613 34.565-5.186 3.322-10.636 6.174-15.48 10.063-4.922 3.786-9.949 7.408-14.405 11.836-8.903-5.888-18.324-11.422-28.032-16.307-10.463 11.26-20.248 23.416-28.24 37.016 6.281 9.86 13.018 19.77 19.257 27.497v83.475q.23-.001.458.02l51.174 4.934a5.51 5.51 0 0 1 4.968 5.104l1.578 22.59 44.64 3.185 3.074-20.85a5.51 5.51 0 0 1 5.453-4.708h53.99a5.51 5.51 0 0 1 5.451 4.708l3.075 20.85 44.64-3.186 1.577-22.59a5.51 5.51 0 0 1 4.968-5.103l51.154-4.934a6 6 0 0 1 .456-.02v-6.662l.022-.005V164.94c7.206-9.071 14.03-19.078 19.257-27.497-7.99-13.6-17.778-25.755-28.242-37.016-9.704 4.885-19.13 10.419-28.033 16.307-4.455-4.428-9.473-8.05-14.402-11.836-4.842-3.89-10.3-6.74-15.476-10.063 1.541-11.476 2.305-22.774 2.611-34.565-13.355-6.721-27.597-11.178-42.002-14.38-5.752 9.667-11.01 20.136-15.592 30.369-5.431-.908-10.888-1.244-16.353-1.31v-.009c-.038 0-.073.01-.106.01-.034 0-.07-.01-.104-.01v.01c-5.475.065-10.927.401-16.36 1.309-4.579-10.233-9.834-20.702-15.594-30.368m-40.487 122.11c17.034 0 30.84 13.797 30.84 30.825 0 17.04-13.806 30.842-30.84 30.842-17.025 0-30.834-13.803-30.834-30.842 0-17.028 13.81-30.824 30.834-30.824m145.091 0c17.024 0 30.832 13.797 30.832 30.825 0 17.04-13.808 30.842-30.832 30.842-17.036 0-30.842-13.803-30.842-30.842 0-17.028 13.806-30.824 30.842-30.824m-72.55 18.039c5.483 0 9.938 4.045 9.938 9.021v28.39c0 4.982-4.455 9.022-9.938 9.022s-9.926-4.04-9.926-9.021v-28.39c0-4.977 4.444-9.022 9.926-9.022" />
    <path
      d="m295.004 263.893-1.585 22.71a5.51 5.51 0 0 1-5.105 5.113l-54.51 3.89a5.51 5.51 0 0 1-5.843-4.694l-3.126-21.2h-44.477l-3.126 21.2a5.507 5.507 0 0 1-5.844 4.693l-54.51-3.89a5.51 5.51 0 0 1-5.105-5.112l-1.584-22.71-46.016-4.436c.021 4.945.085 10.363.085 11.442 0 48.598 61.65 71.957 138.244 72.226h.188c76.595-.269 138.224-23.628 138.224-72.226 0-1.099.066-6.494.089-11.442zm-141.532-63.237c0 11.302-9.16 20.462-20.47 20.462-11.306 0-20.471-9.16-20.471-20.462s9.165-20.47 20.47-20.47c11.31 0 20.47 9.168 20.47 20.47m98.252 0c0 11.302 9.157 20.462 20.459 20.462 11.313 0 20.47-9.16 20.47-20.462s-9.157-20.47-20.47-20.47c-11.302 0-20.46 9.168-20.46 20.47" />
  </g>
</svg>