<svg version="1.2" baseProfile="tiny-ps" xmlns="http://www.w3.org/2000/svg" viewBox="0 0 1500 552" width="1500"
  height="552">
  <style>
    .shp0,
    .shp1 {
      fill: #fff
    }
  </style>
  <g id="g849">
    <path id="path4" class="shp0"
      d="M617.24 300V143.68h65.52V302.3c0 26.44 13.79 43.68 45.98 43.68 29.88 0 44.82-18.39 44.82-44.83V143.68h65.52V300c0 60.92-36.78 97.7-110.34 97.7-74.72 1.15-111.5-35.63-111.5-97.7m251.73-96.55h58.62v26.44h1.15c13.79-20.69 32.18-31.04 58.62-31.04 41.38 0 65.51 29.89 65.51 72.41v122.99h-60.92V282.76c0-19.54-10.34-33.33-29.88-33.33s-33.33 17.24-33.33 40.23v104.59h-60.92v-190.8zm214.94-74.71h60.92v49.42h-60.92zm0 74.71h60.92V393.1h-60.92zm108.04 140.23v-90.81h-25.28v-49.42h25.28v-59.77h58.62v59.77h34.49v49.42h-34.49v78.16c0 14.95 8.05 18.4 20.69 18.4h13.8v43.67c-5.75 1.15-17.24 3.45-33.34 3.45-34.48 0-59.77-11.49-59.77-52.87m131.04 65.52h20.69c17.24 0 25.29-6.9 25.29-19.54 0-8.05-3.45-19.55-11.5-39.09l-56.32-145.97h63.22l25.29 80.46c5.74 18.39 11.49 43.68 11.49 43.68h1.15s5.75-25.29 11.49-43.68l25.29-80.46H1500l-65.52 191.95c-14.94 44.83-33.33 59.77-71.26 59.77h-39.08z" />
    <path id="path6" class="shp1"
      d="M488.51 386.21V128.74L265.52 0v98.85l87.35 50.58c3.45 2.29 3.45 6.89 0 8.04l-103.44 59.77c-3.45 2.3-6.9 1.15-9.2 0l-103.45-59.77c-3.45-1.15-3.45-6.9 0-8.04l87.36-50.58V0L0 128.74v257.47-1.15 1.15l85.06-49.43V235.63c0-3.45 4.6-5.74 6.89-4.6L195.4 290.8c3.45 2.3 4.6 4.6 4.6 8.05v119.54c0 3.45-4.6 5.75-6.9 4.6l-87.35-50.58-85.06 49.43 222.99 129.88 222.99-128.73-85.06-49.43-87.36 50.58c-3.45 2.3-6.89 0-6.89-4.6V300c0-3.45 2.3-6.9 4.59-8.05l103.45-59.77c3.45-2.29 6.9 0 6.9 4.6v101.15z" />
    <path id="path8" class="shp0"
      d="m243.68 551.72 222.99-128.73-85.06-49.43-87.36 50.58c-3.45 2.3-6.89 0-6.89-4.6V300c0-3.45 2.3-6.9 4.59-8.05l103.45-59.77c3.45-2.29 6.9 0 6.9 4.6v101.15l85.06 49.43V128.74L243.68 270.11z" />
    <path id="path10"
      d="M265.52 0v98.85l87.35 50.58c3.45 2.29 3.45 6.89 0 8.04l-103.44 59.77c-3.45 2.3-6.9 1.15-9.2 0l-103.45-59.77c-3.45-1.15-3.45-6.9 0-8.04l87.36-50.58V0L0 128.74l243.68 141.37 243.68-141.37z"
      style="fill:#fff" />
    <path id="path12" class="shp1"
      d="m194.25 424.14-87.35-50.58-85.06 49.43 222.99 128.73V270.11L0 128.74v257.47-1.15 1.15l85.06-49.43V235.63c0-3.45 4.6-5.74 6.89-4.6L195.4 290.8c3.45 2.3 4.6 4.6 4.6 8.05v119.54c1.15 4.6-2.3 8.05-5.75 5.75" />
  </g>
</svg>