<svg xmlns="http://www.w3.org/2000/svg" viewBox="0 0 3156.27 434.56" xml:space="preserve">
	<path
		d="M694.41 218.28c0 30.3-16.64 49.92-50.17 49.92s-50.42-19.62-50.42-49.92v-87.92h-50.66v91.89c0 52.9 36.26 87.67 101.08 87.67s100.83-34.77 100.83-87.67v-91.89h-50.66zm241.05 18.37L832.39 130.36h-53.64V304.2h48.92V189.96L939.93 304.2h44.45V130.36h-48.92zm285.95-46.94c0-39.74-34.52-59.36-78.98-59.36h-121.94V304.2h50.42v-54.89h51.16l45.95 54.89h58.86l-51.16-59.11c27.31-7.94 45.69-26.32 45.69-55.38m-82.7 22.85h-68.05v-43.71h68.05c18.13 0 31.29 4.97 31.29 21.85s-13.16 21.86-31.29 21.86m159.48 22.11h109.53v-37.01h-109.53V169.1h132.87v-38.74h-182.79V304.2h185.52v-38.74h-135.6zm236.7-104.31-89.9 173.85h53.15l16.39-33.28h95.37l16.39 33.28h53.89l-89.9-173.85zm-2.98 104.55 30.3-61.59 30.05 61.59zm214.6-104.55h-50.67V304.2h167.64v-40.72h-116.97zm256.29 104.31h109.52v-37.01H2002.8V169.1h132.87v-38.74h-182.79V304.2h185.52v-38.74h-135.6zm320.2 1.98-103.07-106.29h-53.64V304.2h48.92V189.96l112.26 114.24h44.45V130.36H2323zm185.36 2.49h57.62v15.65c-12.17 11.18-29.06 15.4-50.42 15.4-42.22 0-66.06-18.63-66.06-52.9 0-34.02 23.1-52.65 65.32-52.65 23.35 0 38.99 5.96 53.89 19.37l37-27.32c-18.13-16.89-49.17-32.04-92.14-32.04-71.28 0-115.48 33.78-115.48 92.64s44.21 92.64 115.48 92.64c46.44 0 80.71-15.4 99.34-38.49v-67.8h-104.56v35.5zm134.4-108.78h50.66v173.85h-50.66zm242.96 106.29-103.06-106.29h-53.65V304.2h48.93V189.96l112.25 114.24h44.46V130.36h-48.93zm134.95 28.81v-30.79h109.53v-37.01h-109.53V169.1h132.87v-38.74h-182.79V304.2h185.52v-38.74zM217.28 0C97.28 0 0 97.28 0 217.28s97.28 217.28 217.28 217.28 217.28-97.28 217.28-217.28S337.28 0 217.28 0m55.58 338.08-21.33-23.99-36 36.19a132.83 132.83 0 0 1-105.08-53.9c3.82 1.19 7.77 1.94 11.77 2.22 5.9.11 12.28-2.06 12.28-11.96v-97.67c.08-2.51-.42-5.01-1.47-7.29a16.1 16.1 0 0 0-4.59-5.85 16.1 16.1 0 0 0-6.72-3.17c-2.46-.52-5-.45-7.43.18-16.67 3.84-29.98 45.43-29.98 45.43a132.23 132.23 0 0 1 45.76-101.35 134.14 134.14 0 0 1 67.53-31.15c-18.2 10.37-28.43 27.28-28.43 41.47 0 22.84 13.76 20.07 17.83 16.71v131.81c.69 1.65 1.6 3.21 2.69 4.64 1.82 2.52 4.21 4.56 6.98 5.96s5.83 2.12 8.94 2.1c13.77 0 31.64-15.72 31.64-15.72V166.07c0-10.85-8.18-23.97-16.38-28.47 0 0 15.17-2.69 26.87 6.27 2.2-2.69 4.53-5.25 7-7.7 27.31-26.8 53.04-34.43 74.46-38.25 0 0-38.96 30.62-38.96 71.7 0 30.55.79 105.05.79 105.05 14.46 13.96 35.95-6.21 55.38-26.1-3.76 18.07-20.42 64.42-73.55 89.51"
		style="fill-rule:evenodd;clip-rule:evenodd;fill:#fff" />
</svg>