<svg xmlns="http://www.w3.org/2000/svg" width="1200" viewBox="0 0 510 110">
  <g fill="#fff">
    <path
      d="M64.792 80.99V32.396l42.082 24.297zm93.803-63.285a20.29 20.29 0 0 0-14.32-14.32C131.642 0 80.99 0 80.99 0S30.337 0 17.705 3.385a20.29 20.29 0 0 0-14.32 14.32C0 30.338 0 56.693 0 56.693S0 83.049 3.385 95.68A20.29 20.29 0 0 0 17.705 110c12.632 3.386 63.285 3.386 63.285 3.386s50.652 0 63.285-3.386a20.28 20.28 0 0 0 14.32-14.32c3.385-12.632 3.385-38.988 3.385-38.988s0-26.355-3.385-38.988m94.473 74.326q1.331-3.471 1.332-11.35V58.556q0-7.645-1.332-11.178t-4.69-3.533q-3.245 0-4.577 3.533t-1.332 11.178V80.68q0 7.876 1.275 11.35 1.272 3.476 4.633 3.475 3.359.001 4.691-3.475m-17.953 11.122q-4.811-3.24-6.835-10.079-2.027-6.832-2.027-18.185v-10.31q0-11.467 2.316-18.417t7.24-10.135q4.923-3.185 12.916-3.186 7.876 0 12.626 3.243 4.748 3.244 6.95 10.136 2.2 6.892 2.2 18.36v10.31q0 11.352-2.142 18.243-2.145 6.893-6.951 10.077-4.807 3.186-13.03 3.186-8.46 0-13.263-3.243m248.053-57.981q-1.216 1.508-1.621 4.923c-.272 2.278-.404 5.734-.404 10.367v5.097h11.697V60.46q0-6.833-.463-10.367-.463-3.532-1.678-4.98-1.218-1.449-3.766-1.449-2.55 0-3.765 1.506zm-2.025 29.886v3.591c0 4.557.132 7.974.404 10.251q.403 3.419 1.68 4.982 1.272 1.563 3.938 1.564 3.59 0 4.923-2.781 1.331-2.78 1.447-9.268l13.785.812q.116.93.116 2.548 0 9.848-5.387 14.712c-3.589 3.242-8.669 4.865-15.232 4.865q-11.814.001-16.564-7.414-4.751-7.41-4.75-22.935V63.589q0-15.984 4.924-23.342 4.922-7.355 16.854-7.355 8.223 0 12.626 3.012 4.4 3.014 6.197 9.383 1.796 6.371 1.796 17.607v12.163zm-284.953-1.33-18.187-65.68h15.869l6.37 29.77q2.434 11.008 3.591 18.766h.464q.81-5.559 3.591-18.65l6.603-29.886h15.869l-18.417 65.68v31.51h-15.754zM322.115 34.23v71.007h-12.511l-1.39-8.688h-.347q-5.099 9.846-15.291 9.845-7.065.001-10.425-4.633-3.36-4.632-3.359-14.48V34.23h15.985v52.126q0 4.752 1.043 6.776 1.042 2.028 3.475 2.027 2.085.001 3.996-1.275 1.911-1.273 2.838-3.241V34.229zm81.995.001v71.007h-12.511l-1.391-8.688h-.345q-5.102 9.846-15.292 9.845-7.066.001-10.426-4.633-3.359-4.632-3.358-14.48V34.23h15.985v52.126q0 4.752 1.041 6.776 1.044 2.028 3.476 2.027 2.087.001 3.996-1.275 1.911-1.273 2.839-3.241V34.229z" />
    <path
      d="M365.552 20.908h-15.87v84.329h-15.637v-84.33h-15.869V8.05h47.376zm76.811 53.636q-.001 7.762-.639 12.162-.637 4.405-2.143 6.255-1.508 1.854-4.053 1.854a7.4 7.4 0 0 1-3.65-.927q-1.679-.926-2.722-2.78V50.796q.81-2.895 2.78-4.749 1.969-1.852 4.285-1.853 2.433 0 3.766 1.91 1.33 1.912 1.853 6.43t.523 12.857zm14.652-28.964q-1.45-6.717-4.692-9.73-3.245-3.01-8.919-3.011-4.402 0-8.224 2.49a16.9 16.9 0 0 0-5.908 6.545h-.117l.001-37.416h-15.405v100.777h13.204l1.622-6.717h.347q1.852 3.59 5.56 5.675 3.706 2.085 8.225 2.085 8.107 0 11.931-7.471 3.822-7.471 3.823-23.341V64.23q-.001-11.93-1.448-18.65" />
  </g>
</svg>