<?xml version="1.0" encoding="UTF-8"?>
<svg id="Layer_1" xmlns="http://www.w3.org/2000/svg" version="1.1" xmlns:xlink="http://www.w3.org/1999/xlink" viewBox="0 0 2142 1060">
  <!-- Generator: Adobe Illustrator 29.4.0, SVG Export Plug-In . SVG Version: 2.1.0 Build 152)  -->
  <defs>
    <style>
      .st0 {
        fill: #e52339;
      }

      .st1 {
        fill: #fff;
      }

      .st2 {
        fill: none;
      }

      .st3 {
        isolation: isolate;
      }

      .st4 {
        clip-path: url(#clippath);
      }
    </style>
    <clipPath id="clippath">
      <rect class="st2" x="-318.6" y="-859.9" width="2777.8" height="2777.8"/>
    </clipPath>
  </defs>
  <g class="st3">
    <g class="st4">
      <g>
        <path class="st1" d="M1358.6,456.4c-14.8,4-25.6,9.2-32.1,15.5-6.9,6.6-9.3,15.1-7.5,25.9,1.2,7.1,3.7,12.1,7.8,15.1,2.8,2.1,6.3,3.1,10.7,3.1s3.7-.2,5.7-.5c4.8-.8,8.9-2,12.4-3.6,2.6-1.2,5.2-2.7,7.8-4.5-.7-12.1-1.5-22.7-2.4-31.5-.7-6.7-1.4-13.3-2.2-19.5"/>
        <path class="st1" d="M878.9,717.1h-1.9c-2.4,29.6-4.4,60.6-5.8,92.3-1.5,33.5-2.2,68.8-2.2,104.8v15.9c20.9-13,37.6-30.5,49.5-52.2,13.7-25,20.7-54.4,20.7-87.4s-5.6-40.7-16.7-53.9c-10.9-13-25.2-19.4-43.6-19.4"/>
        <path class="st1" d="M1197,409.3c.2,0,.3.2.5.3-.2.2-.4.3-.6.5,0-.3,0-.5,0-.8M2139.1,360.5c-1.3-28.1-7.9-52.7-19.6-73.1-15-26.2-37.8-45.1-67.7-56-7.4-2.7-15.1-4.7-23.1-6.2,29-33.7,45.4-77.6,44.2-123.7-.7-28.9-8.4-57.5-22.2-82.7-5.9-10.8-17.2-17.2-29-17.2s-5.9.4-8.9,1.2c-24.7,6.9-47.2,18.7-67.1,35.1-25.5,21.1-44.3,48-55.2,78-3.9-4.6-8-9-12.3-13.2-34.2-33.3-79.4-51.7-127.1-51.7s-3.2,0-4.8,0c-1.6,0-3.3.1-4.9.2-26.6,1.4-51.9,8.4-75.4,20.7-9.5,5-15.9,14.3-17.4,24.9-1.3,9.7-1.8,19.6-1.6,29.3.4,16.8,3.2,33.2,8,48.8-8.9-1.8-18.5-3.4-28.9-4.8-23.6-3.1-48.3-4.7-73.2-4.7h-5c-14.7,0-27.7,9.7-31.8,23.8l-1.4,4.8c-3,10.2-5.9,21.9-8.6,34.7-.1.7-.3,1.4-.4,2.1-1.9-.3-3.8-.5-5.7-.5-10.7,0-21,5.2-27.3,14.3l-2.7,4c-1.9,2.8-3.6,5.7-5.3,8.8-8.5-10.5-18.4-19.5-29.7-26.9-23.9-15.8-53.1-23.8-86.6-23.8s-27.2,1.2-41.8,3.7c-40.3,6.7-75.2,21.6-103.8,44.3-4.2,3.3-8.1,6.7-11.8,10.1-4.2-13.9-9.8-26.1-16.8-36.7-20.5-30.9-51.8-47.3-90.6-47.3s-58.6,8-83.3,23.8c-10.4,6.6-20.1,14.6-29,23.7-15.6-9-33.6-13.6-53.5-13.6s-32.4,2.6-47.3,7.8c-3.3-11.4-12.7-20.6-25-23.2l-5.9-1.2c-8.7-1.8-17.5-3.2-26.1-4.1-8.8-.9-17.9-1.4-27-1.4-19.2,0-38.3,1.6-56.7,4.6-20.7,3.5-37,8.4-49.8,15.1l-3.6,1.9c-9.8,5.1-16.3,14.8-17.6,25.6-22.4-20.4-51.3-34.4-85.6-41.1-15.9-3.1-31.7-4.6-46.9-4.6s-36.7,2.3-53.9,6.9c-25.4,6.7-49.3,18.5-71.1,34.8-5.4,4.1-10.7,8.4-15.6,12.9-7.8,7-15.4,14.7-22.4,23-9.5,11-18.2,23.2-26.2,36.4.2-3.3.3-6.5.3-9.6v-7.6c0-9.6-4.1-18.7-11.4-25-6.1-5.3-13.8-8.1-21.7-8.1s-3,.1-4.5.3l-7.5,1c-9,1.2-19.8,2.2-32,2.7,1.4-5.8,2.8-11.5,4.1-16.8l1.5-5.9c4.2-16.7-5.1-33.8-21.4-39.3l-5.8-2c-16-5.5-36.6-9.9-61.1-13.2-23.6-3.1-48.3-4.7-73.2-4.7h-5c-14.7,0-27.7,9.7-31.8,23.8l-1.4,4.8c-3,10.2-5.9,21.9-8.6,34.7-.1.7-.3,1.4-.4,2.1-1.9-.3-3.8-.5-5.7-.5-10.7,0-21,5.2-27.3,14.3l-2.7,4c-7.4,10.7-12.6,24-16.1,40.7-2.9,13.9-4.3,28.6-4.3,43.7v5c0,14.8,9.8,27.8,24,31.8l4.8,1.4c3.2.9,6.5,1.8,10.1,2.7-.1,3.1-.2,6.1-.3,9.1-.4,13.6-.6,27.1-.6,40,0,61.7,13.7,110.7,40.7,145.5,29,37.4,71.4,57.1,122.7,57.1s77.6-14.6,102.5-42.3c12.3-13.7,21.5-28.9,27.6-45.6,5.4,4.7,11.2,9.1,17.5,13.1,6.9,4.4,14,8,21.2,11.1-35.6,26.7-61.1,66-69.8,111.2-5.5,28.4-4.2,58,3.9,85.6,4.1,14.2,17.1,23.8,31.8,23.8s1.2,0,1.8,0c25.6-1.4,50.2-8,73.1-19.8,29.4-15.1,53.6-37.3,70.7-64.3,3.1,5.9,6.6,11.8,10.4,17.4,27.2,40.4,68.6,67.7,116.4,76.9,1.6.3,3.2.6,4.8.9,9.9,1.7,20,2.5,30,2.5,16.2,0,32.4-2.2,48-6.5,10.3-2.8,18.6-10.5,22.3-20.5,3.4-9.2,6-18.7,7.9-28.3,1-5.1,1.7-10.1,2.3-15.2,0,5.3,0,10.7,0,16.1,0,37.4,1.4,77.9,4.1,120.6.5,8.1,1.1,16.3,1.7,24.6-1.3-.3-2.6-.6-3.9-.8l-5.9-.8c-14.1-2-28.3-3-42.3-3s-6,0-9,.1c-17.4.5-34.6,2.8-50.9,6.8l-5,1.2c-14.8,3.6-25.3,16.9-25.3,32.2v5.2c0,12.7.2,24.5.7,35.1.5,10.5,1.4,24,2.6,40.1l.4,5.3c1.2,15.5,13,28.1,28.4,30.2l5.3.7c14.8,2.1,29.4,3.1,43.2,3.1s28-.8,43.7-2.5l5.1-.5c13.5-1.4,24.6-11,28.3-23.8,4.8,8.3,13,14.3,22.9,16l4.9.9c12.5,2.2,27.2,4,43.8,5.2,16.3,1.2,32.4,1.9,48,1.9h1c3.2,0,6.3-.5,9.4-1.4l.9-.3c58.2-17.2,108.4-51.6,149-102,12.9-16,23.8-32.3,32.6-48.7,4.6,37.3,9.4,67.9,14.5,99.8.9,6,1.9,12,2.9,18.1l.9,5.6c2.5,16.1,16.4,28,32.7,28h5.7c35.8,0,80.7-2.1,133.6-6.1,72.6-5.6,91.6-9.1,101.3-12.2l4.7-1.4c13.9-4.3,23.3-17.1,23.3-31.6v-4.9c0-9.8-.5-14-1.6-20.5-.4-2.2-.8-4.6-1.4-9.6-2.8-23.8-7-54.5-11.3-65.9l-2-5.2c-3.4-8.9-10.4-15.7-18.7-19,.7-2.7,1.1-5.5,1.1-8.4v-6.6c0-17.9-.8-33.9-2.2-47.7-1.5-13.8-3.8-27.4-6.8-40.5l-1.2-5.1c-.4-1.9-1-3.7-1.7-5.4,9.2-3.1,16.7-10.1,20.3-19.4,13.5,33,25.8,66.4,36.8,99.8,19,58,34.4,117.6,45.6,177.3l1,5.4c2.9,15.6,16.6,27,32.5,27h5.5c31,0,56.8-1.2,76.8-3.6,21.9-2.6,40.2-6.9,54.6-12.6l2.1-.8c6.7-2.7,12.4-7.5,16.1-13.7l1.1-1.9c30.7-51.4,59.1-107.6,84.3-167.1,25.2-59.6,45.3-118.1,59.5-173.9l1.5-5.7c4.2-16.2-4.5-33-20.1-39.1l-5.5-2.1c-14-5.4-28.6-10.2-43.6-14.3,20.8-7,38.8-18.6,53.2-34.7,5.3-5.8,9.9-12,14-18.4,4.8,7.4,10.1,14.4,16,21,30.2,33.7,72.8,51.5,123.4,51.5s3.9,0,5.8,0c36.1-.9,69.1-9,98-23.9,23.3-12,44.2-28.6,62-49.3,4.4-5.2,8.6-10.5,12.5-15.9,6.1-8.5,11.8-17.7,16.9-27.3,9.1-17,16.6-35.9,22.3-55.9l.3-1c4.1-14.3,16.4-57.7,14.3-103.4"/>
        <path class="st1" d="M593.9,458.6c2.4-3.7,4-7.8,4.8-12.3.5-.8.9-1.7,1.3-2.5,2.3-2.9,4.1-6.2,5.4-9.8,1.9-5.7,3.5-11.6,4.7-17.7,5.5-23,4.2-45.1-2.5-61-7-19.5-20.5-32.3-38-35.7-2.8-.6-5.7-.8-8.6-.8h0c-15.1,0-29.2,7.5-40.5,20.5-9.1-31.1-30.3-38.5-39.4-40.3-2.8-.5-5.7-.8-8.6-.8h0c-10.4,0-30.4,3.8-47.4,29.6-8.8,13.3-15.3,30.1-18.9,48.7-1,5.3-1.8,10.4-2.2,15.4-14,45.7-6.6,88.4,17,95.9,2.4.8,4.9,1.1,7.5,1.1,8.6,0,17.8-4.3,26.6-11.9.1,0,.2,0,.3,0,9.6,0,27.4-3.3,43.4-24,7,19.6,20.6,32.6,38.1,36,2.8.5,5.7.8,8.6.8,10.9,0,31.5-4.1,48.5-31.1"/>
        <path class="st0" d="M716.1,932.2c-12.6-1.8-25.2-2.7-37.7-2.7s-5.4,0-8,.1c-15.1.5-30,2.5-44.1,5.9l-5.1,1.2v5.2c0,12.2.2,23.5.7,33.6.5,10.2,1.3,23.3,2.5,39l.4,5.3,5.3.7c13.3,1.9,26.3,2.8,38.6,2.8s25.7-.8,40.2-2.3l5.1-.5.8-5c1.8-11.9,3.3-24.1,4.4-36.3,1.1-12,1.9-25.6,2.5-40.3l.3-6-5.9-.8Z"/>
        <path class="st0" d="M305.9,494.5c-11.4-8.9-24.4-16.3-38.7-22-14.3-5.6-28.5-9.3-42.2-10.9l-7.3-.9v7.3c-.5,20.1-2,36-4.6,47.4-1.6,6.9-3,10.4-3.9,12-1.1-1.2-2.8-4.3-4.2-11.2-2.2-11-3.4-32.8-3.4-64.9s.6-27,1.7-41.5c1-12.7,2.3-25.5,3.9-38.2,2.8,0,5.6,0,8.4,0,11.7,0,23.2-.4,34.1-1.1,15.4-1,28.3-2.5,38.2-4.5l3.6-.7,1.3-3.4c3.6-9.7,6.5-20.5,8.5-32.1,2-11.6,3-22.2,3-31.5v-7.6l-7.5,1c-11,1.5-24,2.6-38.8,3.2-8.9.3-18.1.5-27.5.5s-7.6,0-11.5,0c1.6-9.3,3.5-18.4,5.6-27.3,2.6-11.1,5.2-21.5,7.6-31.2l1.5-5.9-5.8-2c-14-4.8-32.4-8.7-54.7-11.7-22.2-2.9-45.4-4.4-68.9-4.4h-5l-1.4,4.8c-2.8,9.4-5.5,20.3-8,32.3-2.2,10.2-4.3,22.2-6.4,35.6-5.2-.9-9.8-1.8-13.6-2.7-5.5-1.3-10.2-2.6-14-3.7l-4.6-1.4-2.7,4c-4.8,7-8.4,16.4-11,28.7-2.4,11.7-3.6,24.1-3.6,37v5l4.8,1.4c5.6,1.6,12,3.2,19.1,4.8,5.3,1.2,10.8,2.2,16.5,3.2-.9,12.8-1.6,25-1.9,36.6-.4,13.3-.6,26.5-.6,39,0,54.2,11.4,96.3,33.8,125.2,22.8,29.4,55.3,44.3,96.6,44.3s59.2-10.6,77.9-31.4c18.6-20.6,28-46.1,28-75.6v-3.2l-2.5-2Z"/>
        <path class="st0" d="M1146.8,246.4c-14.3-21.5-35.5-32.4-63-32.4s-46.2,6.2-65.4,18.6c-16.4,10.5-30.7,25.1-42.6,43.6-5.5-7.7-12.2-13.9-19.9-18.6-10.7-6.4-23.5-9.7-37.8-9.7s-38.8,4.9-55.3,14.6c-10.7,6.3-20.5,14.6-29.3,24.7.4-5.3.8-10.6,1.3-15.8,1.1-12.3,2.3-23.6,3.5-33.7l.7-6-5.9-1.2c-7.6-1.6-15.3-2.8-22.8-3.6-7.6-.8-15.5-1.2-23.5-1.2-17.4,0-34.6,1.4-51.3,4.2-17.2,2.9-30.3,6.7-39.9,11.8l-3.6,1.9v4c0,37.8,2.7,87,7.9,146.2,5.6,62.7,18.5,184.5,25.6,237.3l.8,5.7h5.8c16.1,0,33.9-1.2,52.8-3.6,19-2.4,34.2-5.2,45.4-8.4l5.1-1.4-.3-5.3c-.1-2.1-.6-4.3-1.2-7.3-2.1-9.9-6.4-30.6-5.7-84.4,0-4.9.1-8.9.2-12.1,0-3.3.1-5.6.1-7,0-12.9,0-27.3.3-42.8.2-16,.5-39.3.9-70,4.4-14.7,9.6-26.3,15.6-34.4,5.3-7.1,10.4-10.7,15.1-10.7s7,1.4,8.9,4.6c1.7,2.9,3.7,8.8,3.7,20.9,0,17.1-1.7,39.4-4.9,66.3-1.2,10.3-2.3,26.5-3.4,45.4-1.9,31.2-4.4,70.1-8.9,97.2l-1.1,6.5,6.5,1.1c14.8,2.6,28.2,3.2,40,3.8,6.7.3,13,.6,19.2,1.3,17.6,1.8,34.2,2.7,49.1,2.7h5.1l1.3-4.9c3.4-12.7,5.8-40.4,8.4-69.6,1.6-18.9,3.3-38.4,5.3-54,5.1-39.6,7.6-75.2,7.6-105.6v-3.7c4.7-15.1,10-27,15.7-35.2,3.4-4.8,8.4-10.6,13.2-10.6s7,1.4,8.9,4.6c1.7,2.9,3.7,8.8,3.7,20.9,0,23.3-2.7,53.4-8.1,89.5-4.9,33.1-17.9,98.5-32.9,166.5l-1.4,6.5,6.5,1.4c17.7,3.9,36.4,6.9,55.6,8.9,19.2,2,40.5,3,63.1,3h5.1l1.3-4.9c9.6-35.4,22-97.3,28.8-144.1,7.2-49.3,10.9-93.2,10.9-130.3s-7-70.3-20.7-90.9"/>
        <path class="st0" d="M1318.9,497.8c-1.8-10.8.6-19.3,7.5-25.9,6.6-6.3,17.4-11.5,32.1-15.5.7,6.2,1.4,12.8,2.2,19.5.9,8.8,1.8,19.4,2.4,31.5-2.6,1.8-5.2,3.3-7.8,4.5-3.5,1.6-7.7,2.8-12.4,3.6-2,.3-3.9.5-5.7.5-4.4,0-7.8-1-10.7-3.1-4-3-6.6-7.9-7.8-15.1M1473.7,446.6c-.4-42.9-2.7-77-6.8-101.4-6.8-40.5-23.5-69.8-49.9-87.1-18.4-12.1-41.4-18.3-68.4-18.3s-23.6,1.1-36.4,3.2c-34.7,5.8-64.6,18.4-88.7,37.6-24.5,19.4-39.1,40.8-43.3,63.5l-.4,2.3,1.2,2.1c9.8,17.6,24.5,30.1,43.9,37.1,11.6,4.2,24.7,6.4,38.8,6.4s18.3-.8,28.2-2.5l6.4-1.1-.9-6.4c-2.7-18.1-1.8-33.6,2.4-46.2,3.8-11.1,9-17.2,15.6-18.3.7-.1,1.5-.2,2.1-.2,2,0,8.2,0,14.9,12.8,5.6,10.9,11.5,32.3,17.3,63.6-1.7.2-3.5.5-5.5.8l-29.4,4.9c-45.5,7.6-79.1,20.6-99.7,38.7-21.5,18.9-30,43.4-25,72.9,4.8,28.8,19.2,50.3,42.7,64,16.3,9.5,35.5,14.3,57,14.3s18.3-.8,28-2.4c11.5-1.9,22.3-4.8,31.9-8.4,5.9-2.2,11.4-4.7,16.6-7.5.2,3.4.4,8,.7,13.8l.3,6,6,.3c6.5.3,13.2.4,19.9.4s17.9-.2,26.9-.7c15.8-.8,30.7-2.4,44.4-4.7l5.2-.9.3-5.2c3-45.7,4.3-90.6,3.8-133.4"/>
        <path class="st0" d="M1754.5,480.2c-11.4-8.9-24.4-16.3-38.7-22-14.3-5.6-28.5-9.3-42.2-10.9l-7.3-.9v7.3c-.5,20.1-2,36-4.6,47.4-1.6,6.9-3,10.4-3.9,12-1.1-1.2-2.8-4.3-4.2-11.2-2.2-11-3.4-32.8-3.4-64.9s.6-26.9,1.7-41.5c1-12.7,2.3-25.5,3.9-38.2,2.8,0,5.6,0,8.4,0,11.7,0,23.2-.4,34.1-1.1,15.4-1,28.3-2.5,38.2-4.5l3.6-.7,1.3-3.4c3.6-9.7,6.5-20.5,8.5-32.1,2-11.6,3-22.2,3-31.5v-7.6l-7.5,1c-11,1.5-24,2.6-38.8,3.2-8.9.3-18.1.5-27.5.5s-7.6,0-11.5,0c1.6-9.3,3.5-18.4,5.6-27.3,2.6-11,5.2-21.5,7.6-31.2l1.5-5.9-5.8-2c-14-4.8-32.4-8.7-54.7-11.7-22.2-2.9-45.4-4.4-68.9-4.4h-5l-1.4,4.8c-2.8,9.4-5.5,20.3-8,32.3-2.2,10.2-4.3,22.2-6.4,35.6-5.2-.9-9.8-1.8-13.6-2.7-5.5-1.3-10.2-2.6-14-3.7l-4.6-1.4-2.7,4c-4.8,7-8.4,16.4-11,28.7-2.4,11.7-3.6,24.1-3.6,37v5l4.8,1.4c5.6,1.6,12,3.2,19.1,4.8,5.2,1.2,10.8,2.2,16.6,3.2-.9,12.8-1.6,25-1.9,36.6-.4,13.3-.6,26.5-.6,39,0,54.2,11.4,96.3,33.8,125.2,22.8,29.4,55.3,44.3,96.6,44.3s59.2-10.6,77.9-31.4c18.6-20.6,28-46.1,28-75.6v-3.2l-2.5-2Z"/>
        <path class="st0" d="M918.5,877.8c-11.9,21.7-28.5,39.3-49.5,52.2v-15.9c0-36,.8-71.3,2.2-104.8,1.4-31.7,3.3-62.7,5.8-92.3h1.9c18.4,0,32.7,6.3,43.6,19.4,11.1,13.2,16.7,31.3,16.7,53.9,0,33-6.9,62.4-20.7,87.4M1011.2,682c-28.6-24.6-70.2-37-123.9-37s-41.6,2.3-60.9,6.9c-19.3,4.6-40.5,12.2-63.2,22.6l-3.6,1.7-.2,4c-.7,12.6-1.1,25.5-1.3,38.2-.2,12.3-.2,24.9-.2,37.5,0,36.7,1.3,76.5,4,118.5,2.7,42,6.7,87,12,133.9l.6,4.9,4.9.9c11.4,2,25.1,3.6,40.6,4.8,15.4,1.2,30.7,1.8,45.4,1.8h1l.9-.3c51.7-15.3,96.3-45.9,132.6-91.1,36.4-45.3,54.9-92.3,54.9-139.9s-14.6-82.5-43.5-107.4"/>
        <path class="st0" d="M1343.5,981.8c-.4-2.5-1-5.5-1.7-11.6,0-.5-5.6-48.1-9.3-57.9l-2-5.2-5.5,1c-15.5,3-38.9,6.4-69.5,10.2-25.1,3.1-43.2,5-54.1,5.5,0-1.2,0-1.6,0-2.2,0-1.4.2-3.4-.2-10.2-.6-12.3-1-24.9-1.4-37.7,15.5-1.7,31.7-3,48.1-4.1,18.4-1.2,37.3-1.7,56-1.7h6.6v-6.6c0-16.7-.7-31.6-2-44.1-1.4-12.5-3.4-24.9-6.1-36.7l-1.2-5.1h-5.3c-17.8,0-35.6,1.2-52.8,3.6-14.4,2-28.9,4.9-43.2,8.8.3-14.3.5-25.6.8-33.7.2-7,.6-13.4,1-19.2,19.4-1.1,38.4-2,56.5-2.6,19.8-.7,39.3-1,57.7-1h5.3l1.2-5.2c3.4-15.2,5.8-30,7.4-43.9,1.5-14,2.3-27.4,2.3-39.9v-6.6h-6.6c-36.3,0-73.9,2.1-111.8,6.3-39.3,4.3-72,9.8-135.7,40.5l-3.8,1.8v4.2c.7,47.7,4.7,89.1,11.4,157.6,6,62.6,12.8,104.9,19.9,149.8,1,6,1.9,12,2.9,18.2l.9,5.6h5.7c35,0,79-2,131-6,53.1-4.1,83.8-7.6,94.1-10.8l4.7-1.4v-4.9c0-8.1-.3-10.4-1.1-14.7"/>
        <path class="st0" d="M1732.1,662.9c-18.6-7.2-38.4-13.2-59-17.7-20.6-4.5-41.1-7.5-61-8.9l-6.2-.4-.8,6.1c-5.8,42.5-13.5,85.9-23,128.8-6.9,31.3-14.5,60.2-22.5,86.2-5.3-38.7-11.8-76.9-19.5-113.9-9.6-46.3-20.4-86.9-32.1-120.5l-1.6-4.5h-4.8c-27.1.5-53.6,3.3-78.9,8.2-25.4,5-48.7,12.1-69.1,21.2l-6.2,2.7,2.9,6.1c27,57.6,50.6,116.9,70.1,176.2,19.5,59.3,35.2,120.4,46.7,181.5l1,5.4h5.5c29.7,0,54.2-1.1,72.9-3.4,19-2.3,34.6-5.8,46.2-10.5l2.1-.8,1.1-1.9c30-50.1,57.6-104.9,82.2-163,24.6-58.1,44.1-115,58-169.2l1.5-5.7-5.5-2.1Z"/>
        <path class="st0" d="M497.8,599.6c1.3-6.9,3.2-13.7,5.4-20.2.3-1,.7-2,1.1-3.1,1.3-.4,2.5-.7,3.8-1,11.4-2.8,23.3-4.3,35.4-4.3,9.4,0,19,.9,28.7,2.7,80.9,15.7,133.7,94,118,174.8-1.6,8-3.7,15.8-6.5,23.2-20.2,5.5-41.9,6.9-63.8,3.3-1.3-.2-2.7-.5-4-.7-80.9-15.7-133.7-94-118-174.8"/>
        <path class="st0" d="M334,693.6c11.5-59.5,56.9-103.8,112.2-116.8,8.5-2,17.1-3.3,26-3.7.7,2.3,1.3,4.6,1.8,6.9.6,2.5,1.1,5,1.6,7.5,3.3,17.8,3.4,36.6-.3,55.5-9.1,46.8-39.1,84.2-78.5,104.4-18.3,9.4-38.6,15-59.8,16.2-6.4-22-7.8-45.9-3.2-70"/>
        <path class="st0" d="M491.1,417.5c-14.9,46.4-46.3,77.9-70.2,70.2-23.9-7.7-31.2-51.5-16.4-97.9,14.9-46.4,46.3-77.9,70.2-70.2,23.9,7.7,31.2,51.5,16.4,97.9M519,395.1c8.4-32.3,27.9-56.6,48-62.6,5.6-1.7,11.3-1.9,16.8-.5,25,6.5,36.6,45.3,25.9,86.7-6.6,25.6-20.3,46.2-35.6,56.6-9.5,6.4-19.6,9-29.1,6.5-25-6.5-36.6-45.3-25.9-86.7M659.6,292.9c-18.4-32.7-49.5-53.5-92.5-61.9-30.5-5.9-59.4-5.3-86,1.7-21.3,5.7-41.3,15.5-59.8,29.3-4.6,3.4-9,7.1-13.4,11-6.8,6.1-13.2,12.7-19.4,19.9-11.1,13-21.1,27.7-29.9,44-11.8,21.9-79.2,143.8,9.3,200.1,45,28.6,111.5,21.8,133.3,9h0c5.8.9,24.9,3.2,45,0,36.9-6,63.1-22.3,81.8-41.5,37.2-38.3,44.3-88.3,45.1-92.4,9.1-46.8,4.5-86.8-13.7-119.1"/>
        <path class="st0" d="M1900.3,229.3c.2,7.1-.1,14-.9,20.9-.1,1.1-.2,2.1-.4,3.2-1.1.6-2.3,1.2-3.5,1.8-10.6,5.2-21.8,9.2-33.6,11.8-9.2,2-18.8,3.2-28.6,3.5-82.4,2.1-150.8-62.9-153-145.3-.2-8.2.2-16.2,1.3-24.1,18.5-9.8,39.4-15.8,61.6-16.9,1.4,0,2.7-.1,4.1-.2,82.4-2.1,150.8,62.9,153,145.3"/>
        <path class="st0" d="M2039.9,102.2c1.6,60.5-33.2,113.6-84.4,138.3-7.8,3.8-16,6.9-24.6,9.3-1.1-2.1-2.3-4.2-3.3-6.4-1.1-2.3-2.2-4.6-3.2-7-7.1-16.7-11.2-35-11.7-54.3-1.2-47.6,20-90.7,54.1-118.8,15.8-13.1,34.5-23,54.9-28.7,11,20.1,17.5,43.1,18.2,67.7"/>
        <path class="st0" d="M1830.1,430.2c1-26.4,9.8-49.5,22.6-63,7.8-8.3,17.2-13,27-12.7,25.9.9,45.5,36.3,44,79.1-1.2,33.4-15,61.3-33.4,71.5-5.1,2.9-10.6,4.3-16.3,4.1-25.8-.9-45.5-36.3-44-79.1M2036.7,414.2c-4.5,48.5-28.4,86-53.4,83.7-25-2.3-41.6-43.5-37.1-92.1,4.5-48.5,28.4-86,53.4-83.7,25,2.3,41.6,43.6,37.1,92.1M2040.5,262.4c-50.1-18.3-113.6,2.8-132.1,20h0c-5.8.4-25,2.3-43.9,9.8-103.8,41.3-95.3,151.9-95.1,158.2,1.2,47.6,14.4,85.8,39,113.3,25,28,59.9,41.6,103.7,40.4,31-.8,59.2-7.6,83.6-20.2,19.6-10.1,37-24,52-41.5,3.7-4.3,7.3-8.9,10.7-13.6,5.3-7.4,10.2-15.3,14.6-23.6,8.1-15,14.6-31.6,19.7-49.4,6.8-23.9,46.3-157.4-52.2-193.4"/>
        <path class="st0" d="M2004.9,428.5c.8,31.5-10,57.4-24.2,57.8-14.2.4-26.4-24.9-27.2-56.5-.2-8.2.4-16.1,1.6-23.2,2.4,2.9,6.5,4.7,11.1,4.6,7.3-.2,13-5.2,12.9-11.2-.2-6-6.2-10.7-13.4-10.5-2.3,0-4.5.6-6.3,1.5,4.4-11.5,11-18.8,18.4-19,14.2-.4,26.4,24.9,27.2,56.5"/>
        <path class="st0" d="M1913.5,431.4c.8,29.3-9.9,53.4-23.8,53.8-13.9.4-25.7-23.1-26.5-52.5-.1-5.1,0-10.1.6-14.8,2.4,1.6,5.4,2.6,8.8,2.5,7.3-.2,13-5.2,12.9-11.2-.2-6-6.2-10.7-13.4-10.5-1.5,0-2.9.3-4.2.7,4.3-12.3,11.2-20.3,19.1-20.5,13.9-.4,25.7,23.1,26.5,52.5"/>
        <path class="st0" d="M438.6,382.7c6-31,22.2-53.9,36.1-51.2,14,2.7,20.4,30,14.4,61-1.6,8.1-3.8,15.6-6.6,22.3-1.7-3.3-5.3-6-9.8-6.9-7.1-1.4-13.8,2.3-15,8.2-1.1,5.9,3.7,11.8,10.8,13.2,2.3.4,4.5.4,6.5-.1-6.8,10.3-14.7,16-22.1,14.6-13.9-2.7-20.4-30-14.4-61"/>
        <path class="st0" d="M528.5,399.5c5.6-28.8,21.2-50,34.8-47.4,13.6,2.6,20.2,28.2,14.6,57-1,5-2.3,9.8-3.8,14.3-2-2.1-4.8-3.7-8.1-4.4-7.1-1.4-13.8,2.3-15,8.2-1.1,5.9,3.7,11.8,10.8,13.2,1.5.3,2.9.4,4.3.2-6.8,11.1-15.3,17.4-23.1,15.9-13.6-2.6-20.2-28.1-14.6-57"/>
      </g>
    </g>
  </g>
</svg>