<svg version="1.2"
	xmlns="http://www.w3.org/2000/svg" viewBox="0 0 1261 1873" width="1261" height="1873">
	<title>Me</title>
	<style>
		.s0 { fill: #6d2f8d } 
		.s1 { fill: #cd9dcc } 
		.s2 { fill: #b972ba } 
		.s3 { fill: #dcb0d6 } 
		.s4 { fill: none;stroke: #9f5ea6;stroke-linecap: round;stroke-linejoin: round;stroke-width: 20 } 
		.s5 { fill: none;stroke: #6d2f8d;stroke-linecap: round;stroke-linejoin: round;stroke-width: 35 } 
		.s6 { fill: #74357f } 
		.s7 { fill: #6b2d75 } 
		.s8 { fill: #b57cb4 } 
		.s9 { fill: none;stroke: #6d2f8d;stroke-linecap: round;stroke-linejoin: bevel;stroke-width: 40 } 
		.s10 { fill: #873994 } 
		.s11 { fill: none;stroke: #331c50;stroke-linecap: round;stroke-linejoin: round;stroke-width: 35 } 
		.s12 { fill: #331c50 } 
	</style>
	<g id="Layer 1">
		<path id="Forma 1" fill-rule="evenodd" class="s0" d="m644 1496v327.1c0 0 12.8 29.9 48 29.9 35.2 0 168 0 168 0 0 0 18.6-120-80-120-64.5 0-60-110-60-110v-129.1"/>
		<path id="Forma 1 copy" fill-rule="evenodd" class="s0" d="m234 1496v327.1c0 0 12.8 29.9 48 29.9 35.2 0 168 0 168 0 0 0 18.6-120-80-120-64.5 0-60-110-60-110v-129.1"/>
		<path id="Forma 10" fill-rule="evenodd" class="s1" d="m1000 1091c0 0-5.2 44.7 59.9 64l32.1-32c0 0 145 10.6 145-36 0-46.6-80-32-80-32 0 0 86.3-66.7 49-104-37.3-37.3-98 40-98 40 0 0 12.6-84-34-84-46.6 0-48 63-48 63 0 0 7.3 89-26 121z"/>
		<path id="Forma 9" fill-rule="evenodd" class="s2" d="m854 1167v97.4c0 0 104.5-10.6 208-113.4 0 0-47.1-9.2-62-54 0 0-35.9 40.9-146 70zm-453-243c0 0-301 123.7-301 250 0 137.5-14 194-14 194 0 0-39 128 78 128 117 0 641 0 641 0 0 0 66 2.9 66-98 0-100.9-15-232-15-232 0 0-44.8-126.6-210-212 0 0-105 126-132 126-27 0-113-156-113-156z"/>
		<path id="Forma 11" fill-rule="evenodd" class="s3" d="m688 1277c-33.2 0-60-26.8-60-60 0-33.2 26.8-60 60-60 33.2 0 60 26.8 60 60 0 33.2-26.8 60-60 60z"/>
		<path fill-rule="evenodd" class="s4" d="m662 1207.9c0 0 2.4-21.5 27.2-21.9"/>
		<path id="Layer copy" fill-rule="evenodd" class="s5" d="m664.8 1138.2c0 0-12.2-27.7-46.6-19.7"/>
		<path id="Layer copy" fill-rule="evenodd" class="s5" d="m686.3 1140c0 0 1-44.3 56.1-30.1"/>
		<path id="Layer copy" fill-rule="evenodd" class="s5" d="m692.9 1151.5c37.4 2.9 65.5 33.9 62.7 69.1-2.7 35.3-35.3 61.4-72.8 58.5-37.4-3-65.5-33.9-62.7-69.2 2.7-35.2 35.3-61.4 72.8-58.4z"/>
		<path id="Forma 5" fill-rule="evenodd" class="s6" d="m204 833c0 0 9.7 89.7 81 143 0 0 94.1-51.4 119-52l-6-127c0 0-77.5-43.6-95-134 0 0-18.6 131.7-99 170z"/>
		<path id="Forma 6" fill-rule="evenodd" class="s6" d="m647 875v77c0 0 59.1 27 95 61 0 0 110.6-77 65.1-221.2 0 0-64.9 67.1-160.1 83.2z"/>
		<path id="Forma 7" fill-rule="evenodd" class="s7" d="m238 817c0 0 45 105 110 128l54-23-5-127c0 0-88.7-62-93.3-111.4 0 0-22.4 100.4-65.7 133.4z"/>
		<path id="Forma 8" fill-rule="evenodd" class="s7" d="m647 877v79c0 0 94.3 44.7 162-126v-37.1c0 0-47.7 53.5-162 84.1z"/>
		<path id="Forma 3" fill-rule="evenodd" class="s1" d="m500 193c0 0-23.1 143.1 328 147 48.6 0 134.1 163.3 66 325-68.1 161.7-244 212-244 212v73c0 0-108.7 130-131 130-22.3 0-117-158-117-158v-131c0 0-104-36-104-167 0 0-75-26.7-75-100 0-73.3 71-80 71-80v-44c0 0 188.2-123.3 206-207z"/>
		<path id="Forma 4" fill-rule="evenodd" class="s8" d="m652 895c0 0-30.1 18.9-110-7.3-76.6-25.1-72.3-67.4-72.3-67.4m158.9-214.1c0 0-3.6 62.8 76.9 50.5 80.5-12.4 78.5-42.8 78.5-42.8m-66-238.9c0 0 1.6 34.6 35 19 33.4-15.6 69.2-12.2 88-4 17.3-24.2-54.6-65.4-123-15zm-281-6c0 0-0.3 35.1 29 23 16.3-6.7 24.8-17.6 47.4-18.8 32.7-1.7 32.9 2.5 48.6 1.4 22.3-5.5 9.6-21.1-6.4-26.6-26.1-9-83.6-1-118.6 21zm68.2-123.9c0 0-57.9 107.5-170.6 169.8-4 6.7-6.9 17.5-4 42.2 1.8 15-42.6-10.1-42.6-10.1 0 0-5.6-39.3 12-50 17.6-10.7 155-112.8 189-194 7.2 10.6 16.2 42.1 16.2 42.1zm229.1 462.3c0 0-27.2 43.4-77.3 42.6-43 0-117-72.6-106.4-97.7 2.5-0.3 42.7 47.6 91.8 62.7 40.5 12.4 91.9-7.6 91.9-7.6zm-389.6-72.3c0 0 3.1 11-6.1 20.7-9.1 9.7 20.1 74.9 51.5 106.6 18.3 18.6-2.4 34.4-15.3 22.3-23.5-22-79-104.8-77.8-161.7z"/>
		<path fill-rule="evenodd" class="s9" d="m196.1 820.1c0 0 34.8 122.9 81.1 152.5"/>
		<path fill-rule="evenodd" class="s9" d="m824 856.9c0 0-3.1 94.8-73.5 149.1"/>
		<path id="Forma 2" fill-rule="evenodd" class="s10" d="m294.6 620.3c0 0 32 189-144.6 237.7-98.9 27.6-104 27-104 27 0 0-95.7-506.5 64.9-697.9 180.1-214.7 478.1-152.1 478.1-152.1 0 0 344.2 154 372 157 27.8 3 169.3 228 119 486-50.3 258-231 249-231 249 0 0-29.1-43.7-17.6-114.5 6.1-37.3 33-79.9 60.6-132.5 85-161.7 6.3-344.8-144-348-192.7-4.1-252-140-252-140 0 0-109.1 173.6-207 211 0.3 9.7-2.1 43.3-2.1 43.3 0 0-14.5-2.4-32 9.7 0 0-100.2 86.2 39.7 164.3z"/>
		<path fill-rule="evenodd" class="s5" d="m227.7 1512l7.1 303c0 0-4.3 40 40 40h176.1c0 0 26.6-121-84.1-121 0 0-62.1 8.9-62.1-62 0-70.9 4-159 4-159"/>
		<path fill-rule="evenodd" class="s5" d="m641.7 1512l7.1 303c0 0-4.3 40 40 40h176.1c0 0 26.6-121-84.1-121 0 0-62.1 8.9-62.1-62 0-70.9 4-159 4-159"/>
		<path fill-rule="evenodd" class="s5" d="m853.3 1168.1c0 0 160.8-33.3 166.4-119.1 5.5-85.8 8.1-145 53-145 44.8 0 35 83 35 83 0 0 62.4-71.6 97-37 34.6 34.6-44 100-44 100 0 0 77-11.3 77 39 0 50.3-150 34-150 34 0 0-130.1 138.7-227 139"/>
		<path fill-rule="evenodd" class="s5" d="m391.7 926c0 0-298.8 106.2-298.8 300 0 180.2-51.3 272 80.7 272h628.6c116.1 0 56.5-137.8 56.5-280 0-154.7-207-263-207-263"/>
		<path fill-rule="evenodd" class="s5" d="m292.7 623c0 0 55.8 223.6-245 260-30.5-71.9-42.1-613.1 94-727 136.1-113.9 272.8-198.7 552-83 0 0 162.5 96.7 259 117 125.4 34.3 289 667.2-107.1 737.1-47.9-95.8-17.4-154-17.4-154"/>
		<path fill-rule="evenodd" class="s5" d="m483.7 820c0 0 76 55 159 55 83 0 278-127.3 278-328 0-200.7-104.6-209-104.6-209 0 0-321.4-15.2-321.4-149 0 0-69.4 141.8-203 213 0 0-0.5 9.8-3 44-33.5 2.5-46.1 24.7-52.9 36.4-6.8 11.6-22.1 39.5-8.2 73.5 8.2 16.3 24.8 36.9 63.5 58.5 13.1 70.7 44.3 152.5 107.6 178.6 2.2 66.3 5 136 5 136 0 0 81.2 150 111 150 29.8 0 132-137 132-137v-51"/>
		<path fill-rule="evenodd" class="s11" d="m332.7 630c0 0-172.6-46.7-87-163 55.4-59.2 98 34 98 34"/>
		<path fill-rule="evenodd" class="s11" d="m453.5 368.5c0 0 38.8-41 114.5-9.8"/>
		<path fill-rule="evenodd" class="s11" d="m732.8 374.2c0 0 42.3-37.4 114.9 0.5"/>
		<path fill-rule="evenodd" class="s11" d="m661.7 473c0 0 117.4 55.6 128 112 5.9 31.5-81.8 58.9-144 22"/>
		<path fill-rule="evenodd" class="s11" d="m566.7 656c0 0 64.1 70 102 70 37.9 0 73-50 73-50"/>
		<path class="s12" d="m517.2 472c-18 0-32.5-14.5-32.5-32.5 0-18 14.5-32.5 32.5-32.5 18 0 32.5 14.5 32.5 32.5 0 18-14.5 32.5-32.5 32.5zm273 13c-18 0-32.5-14.5-32.5-32.5 0-18 14.5-32.5 32.5-32.5 18 0 32.5 14.5 32.5 32.5 0 18-14.5 32.5-32.5 32.5z"/>
	</g>
</svg>