<?xml version="1.0" encoding="UTF-8"?>
<svg id="Layer_1" xmlns="http://www.w3.org/2000/svg" version="1.1" xmlns:xlink="http://www.w3.org/1999/xlink" viewBox="0 0 1335.9 1784.6">
  <!-- Generator: Adobe Illustrator 29.4.0, SVG Export Plug-In . SVG Version: 2.1.0 Build 152)  -->
  <defs>
    <style>
      .st0 {
        fill: #e52339;
      }

      .st1 {
        fill: none;
      }

      .st2 {
        isolation: isolate;
      }

      .st3 {
        clip-path: url(#clippath);
      }
    </style>
    <clipPath id="clippath">
      <rect class="st1" x="-665.3" y="-496.1" width="2777.8" height="2777.8"/>
    </clipPath>
  </defs>
  <g class="st2">
    <g class="st3">
      <g>
        <path class="st0" d="M690,610c.6,22.1-.4,43.9-2.9,65.3-.3,3.4-.8,6.7-1.2,10.1-3.6,1.9-7.2,3.8-10.8,5.6-33.1,16.3-68.4,28.9-105.3,37-28.9,6.4-58.8,10.1-89.5,10.9C222.4,745.5,7.9,541.9,1.3,284c-.7-25.6.8-50.8,4.1-75.4,58-30.6,123.4-49.4,192.9-53.1,4.3-.2,8.5-.4,12.8-.5,257.9-6.6,472.3,197.1,479,454.9"/>
        <path class="st0" d="M1127.3,212c4.9,189.6-103.9,355.7-264.3,433-24.5,11.8-50.2,21.6-76.9,29-3.6-6.6-7.1-13.2-10.3-20-3.5-7.2-6.9-14.5-10-21.9-22.1-52.4-35-109.7-36.6-169.9-3.8-149.2,62.7-283.9,169.4-372.1C948.2,49,1006.5,18,1070.4.2c34.5,63.1,54.9,135,56.9,211.9"/>
        <path class="st0" d="M470.4,1239c3-82.8,30.8-154.9,70.8-197.2,24.6-26.1,53.8-40.8,84.6-39.6,81,3,142.6,113.8,137.7,247.6-3.8,104.5-47.1,192-104.4,224-16.1,8.9-33.2,13.5-50.9,12.9-80.9-3-142.6-113.8-137.7-247.6M1117.1,1188.8c-14.1,152-89,269.3-167.3,262-78.3-7.3-130.3-136.4-116.2-288.4,14.1-152,89-269.3,167.3-262.1,78.3,7.3,130.3,136.4,116.2,288.4M1129.2,713.7c-156.9-57.2-355.7,8.7-413.8,62.6h0c-18.2,1.2-78.4,7.1-137.6,30.7-325.1,129.4-298.3,475.6-297.8,495.3,3.8,149.2,45,268.6,122.2,354.8,78.4,87.6,187.6,130.2,324.7,126.7,97.2-2.5,185.4-23.8,261.9-63.3,61.4-31.7,116-75.3,163-130,11.6-13.5,22.8-27.8,33.5-42.7,16.6-23.1,31.9-47.8,45.8-73.8,25.2-47.1,45.9-98.9,61.7-154.6,21.3-74.8,145.1-493-163.6-605.6"/>
        <path class="st0" d="M1017.5,1233.5c2.5,98.8-31.4,179.8-75.9,181-44.5,1.1-82.6-78-85.1-176.8-.7-25.8,1.2-50.4,5-72.6,7.6,9,20.3,14.7,34.6,14.3,22.7-.6,40.8-16.3,40.3-35.1-.5-18.8-19.3-33.5-42-32.9-7.2.2-14,1.9-19.8,4.7,13.8-36,34.3-58.8,57.8-59.4,44.5-1.1,82.6,78,85.1,176.8"/>
        <path class="st0" d="M731.3,1242.7c2.4,91.9-31,167.3-74.4,168.4-43.5,1.1-80.6-72.5-83-164.4-.4-16,.3-31.5,1.9-46.2,7.4,5.1,17,8.2,27.6,7.9,22.7-.6,40.8-16.3,40.3-35.1-.5-18.8-19.3-33.5-42-32.9-4.7.1-9.1.9-13.2,2.2,13.4-38.6,35-63.6,59.9-64.2,43.5-1.1,80.6,72.5,83,164.4"/>
      </g>
    </g>
  </g>
</svg>