<?xml version="1.0" encoding="UTF-8"?>
<svg id="Layer_1" xmlns="http://www.w3.org/2000/svg" version="1.1" xmlns:xlink="http://www.w3.org/1999/xlink" viewBox="0 0 1531.8 1980.1">
  <!-- Generator: Adobe Illustrator 29.4.0, SVG Export Plug-In . SVG Version: 2.1.0 Build 152)  -->
  <defs>
    <style>
      .st0 {
        fill: #e52339;
      }

      .st1 {
        fill: #fff;
      }

      .st2 {
        fill: none;
      }

      .st3 {
        isolation: isolate;
      }

      .st4 {
        clip-path: url(#clippath);
      }
    </style>
    <clipPath id="clippath">
      <rect class="st2" x="-566.8" y="-397.9" width="2777.8" height="2777.8"/>
    </clipPath>
  </defs>
  <g class="st3">
    <g class="st4">
      <g>
        <path class="st1" d="M321.8,155.8c-4.9,0-9.9,0-14.8.2-4.7.1-9.6.3-15.2.6,0,0-.1,0-.1,0-82.2,4.3-160.6,25.9-233.1,64.1-27.8,14.7-46.8,41.9-51,73-4,30-5.7,60.6-4.9,90.8,3.8,148.1,64.4,286.6,170.5,389.9,80.8,78.7,181.3,130.3,289.9,150.4-65.8,60.7-115.3,137-146.3,226.8-27.1,78.6-39.4,165-35.6,250v1.5c4.6,172.7,54,312.9,147.1,416.8,47.4,52.9,104.5,93.3,169.7,120.1,63.3,26,134.5,39.1,211.8,39.1s12.1,0,18.1-.2c112-2.9,214.3-27.8,304-74.2,72.3-37.3,137-88.8,192.1-153,13.7-16,26.7-32.6,38.8-49.4,19.1-26.6,36.8-55.1,52.6-84.7,28.4-53.1,51.8-111.6,69.5-173.8l.9-3.1c12.7-44.4,51.2-179.5,44.4-321.8-4.1-87-24.5-163.1-60.5-226.1-46.1-80.8-116.3-138.8-208.6-172.5-26-9.5-53.5-16.6-82.2-21.2,21.9-24.4,41.8-50.9,59.4-79,58.4-93.7,87.7-201.8,84.8-312.5-2.3-89.5-26.1-178-68.8-256.1-17.4-31.7-50.4-50.5-85.3-50.5s-17.4,1.2-26.1,3.6c-76.4,21.3-146.3,57.8-207.7,108.6-64.5,53.3-117.1,121.5-152.4,197.1-8.4,18.1-15.8,36.5-22.2,55.1-14.1-17.3-29.2-34-45.4-49.7-51.6-50.2-111.4-89.6-177.6-117.1-68.5-28.4-141.1-42.8-215.7-42.8M779.3,778.5c-1,.6-2,1.3-2.9,1.9"/>
        <path class="st0" d="M788.5,708.1c.6,22.1-.4,43.9-2.9,65.3-.3,3.4-.8,6.7-1.2,10.1-3.6,1.9-7.2,3.8-10.8,5.6-33.1,16.3-68.4,28.9-105.3,37-28.9,6.4-58.8,10.1-89.5,10.9-257.9,6.6-472.3-197.1-479-454.9-.7-25.6.8-50.8,4.1-75.4,58-30.6,123.4-49.4,192.9-53.1,4.3-.2,8.5-.4,12.8-.5,257.9-6.6,472.3,197.1,479,454.9"/>
        <path class="st0" d="M1225.8,310.2c4.9,189.6-103.9,355.7-264.3,433-24.5,11.8-50.2,21.6-76.9,29-3.6-6.6-7.1-13.2-10.3-20-3.5-7.2-6.9-14.5-10-21.9-22.1-52.4-35-109.7-36.6-169.9-3.8-149.2,62.7-283.9,169.4-372.1,49.6-41,107.9-72.1,171.8-89.9,34.5,63.1,54.9,135,56.9,211.9"/>
        <path class="st0" d="M568.9,1337.2c3-82.8,30.8-154.9,70.8-197.2,24.6-26.1,53.8-40.8,84.6-39.6,81,3,142.6,113.8,137.7,247.6-3.8,104.5-47.1,192-104.4,224-16.1,8.9-33.2,13.5-50.9,12.9-80.9-3-142.6-113.8-137.7-247.6M1215.6,1286.9c-14.1,152-89,269.3-167.3,262-78.3-7.3-130.3-136.4-116.2-288.4,14.1-152,89-269.3,167.3-262.1,78.3,7.3,130.3,136.4,116.2,288.4M1227.6,811.8c-156.9-57.2-355.7,8.7-413.8,62.6h0c-18.2,1.2-78.4,7.1-137.6,30.7-325.1,129.4-298.3,475.6-297.8,495.3,3.8,149.2,45,268.6,122.2,354.8,78.4,87.6,187.6,130.2,324.7,126.7,97.2-2.5,185.4-23.8,261.9-63.3,61.4-31.7,116-75.3,163-130,11.6-13.5,22.8-27.8,33.5-42.7,16.6-23.1,31.9-47.8,45.8-73.8,25.2-47.1,45.9-98.9,61.7-154.6,21.3-74.8,145.1-493-163.6-605.6"/>
        <path class="st0" d="M1116,1331.6c2.5,98.8-31.4,179.8-75.9,181-44.5,1.1-82.6-78-85.1-176.8-.7-25.8,1.2-50.4,5-72.6,7.6,9,20.3,14.7,34.6,14.3,22.7-.6,40.8-16.3,40.3-35.1-.5-18.8-19.3-33.5-42-32.9-7.2.2-14,1.9-19.8,4.7,13.8-36,34.3-58.8,57.8-59.4,44.5-1.1,82.6,78,85.1,176.8"/>
        <path class="st0" d="M829.8,1340.8c2.4,91.9-31,167.3-74.4,168.4-43.5,1.1-80.6-72.5-83-164.4-.4-16,.3-31.5,1.9-46.2,7.4,5.1,17,8.2,27.6,7.9,22.7-.6,40.8-16.3,40.3-35.1-.5-18.8-19.3-33.5-42-32.9-4.7.1-9.1.9-13.2,2.2,13.4-38.6,35-63.6,59.9-64.2,43.5-1.1,80.6,72.5,83,164.4"/>
      </g>
    </g>
  </g>
</svg>