<?xml version="1.0" encoding="UTF-8"?>
<svg id="Layer_2" data-name="Layer 2" xmlns="http://www.w3.org/2000/svg" viewBox="0 0 857.6 90.51">
  <defs>
    <style>
      .cls-1 {
        fill: #fff;
      }

      .cls-2 {
        fill: #e42038;
      }
    </style>
  </defs>
  <g id="Bottom">
    <g>
      <g>
        <path class="cls-2" d="M60.42,89.01c-5.61,0-11.14-1.4-16.43-4.17-1.75-.91-7.08-3.69-6.35-7.92,1.1-6.32,17.05-11.9,47.44-16.6C41.3,51.78,8.98,34.13,1.59,14.3c-.24-.65,0-1.37.56-1.76.26-.18.55-.26.85-.26.36,0,.72.13,1,.38,21.98,19.64,72.07,42.58,140.93,42.58,24.02,0,47.01-5.06,68.49-11-10.19-1.18-22.57-2.83-33.58-4.94-23.86-4.56-27.41-8.55-27.83-11.51-.52-3.6,4.06-5.93,7.55-7.36,6.21-2.56,12.69-3.85,19.26-3.85,23.12,0,42.01,15.82,49.67,23.32,4.65-1.38,9.33-2.8,14.04-4.23,37.6-11.41,76.48-23.21,123.35-23.48h1.59c44.53,0,73.14,10.98,100.81,21.61,26.59,10.21,51.75,19.87,89.96,20.54-8.89-3.71-20.95-8.99-31.39-14.37-22.62-11.66-24.59-17.04-24.1-20.08.58-3.61,5.25-5.59,14.72-6.22,2.33-.19,4.65-.29,6.88-.29,38.75,0,48.08,29.64,50.21,40.75,40.54-1.5,74.48-10.3,104.45-18.08,11.03-2.86,21.59-5.6,31.89-7.84-40.94-5.57-41.74-11.86-42.02-14.02-.42-3.27,2.91-6.16,10.46-9.08,6.15-2.38,12.06-3.59,17.57-3.59,19.93,0,30.13,15.37,33.98,23.03,8.39-1.19,16.03-1.76,23.32-1.76,30.97,0,53.97,10.72,67.81,19.71,16.28,10.58,28.92,24.7,33.83,37.78.19.56.5,1.44-.04,2.19-.28.39-.79.66-1.28.66h0c-.95,0-1.4-.52-3.93-3.38-8.21-9.3-33.05-37.42-74.53-44.43-4.44,10.65-20.23,39.61-60.32,40.06-.3,0-.61,0-.9,0-8.4,0-12.42-1.36-13.03-4.4-.61-3.01,1.89-8.09,26.8-20.77,12.06-6.14,25.78-12.22,35.25-16.28-2.3-.14-4.61-.21-6.91-.21-.49,0-.98,0-1.47,0-29.54.39-54.15,7.28-80.21,14.57-30.74,8.6-62.53,17.49-106.63,17.49-5.62,0-11.4-.15-17.17-.44-42.23-2.18-67.33-12.31-87.44-20.63-5.61,6.79-19.99,20.42-44.96,20.42-9.05,0-18.73-1.82-28.76-5.42-9.97-3.57-14.16-6.64-13.59-9.97.51-3.03,4.79-6.8,33.55-9.09,13.62-1.09,28.89-1.52,39.73-1.7-21.96-8.74-43.15-15.11-77.8-15.11-6.06,0-12.48.21-19.09.61-21.89,1.35-42.13,4.24-61.84,8.83-1.34,10.67-7.26,40-31.46,40-.74,0-1.5-.03-2.26-.08-4.64-.34-7.38-1.86-8.14-4.52-2.02-7.03,12.69-20.37,27.59-31.78-12.34,3.39-23.51,7.09-34.37,10.69-28.56,9.46-55.53,18.4-95.46,18.4h-.92c-14.86-.06-29.36-.99-43.12-2.78-6.5,8.29-22.62,25.79-42.72,25.79Z"/>
        <path class="cls-1" d="M696.9,3c20.09,0,29.93,16.45,33.11,23.18,8.14-1.19,16.17-1.91,24.19-1.91,53.79,0,91.44,33.08,100.24,56.52.19.56.22.82.09.82-1.67,0-28.35-39.92-79.4-47.99-3.93,10.04-18.98,39.78-59.39,40.24-.3,0-.59,0-.88,0-39.54,0,32.86-31.58,55.17-40.93-4.2-.47-8.55-.73-13.06-.73-.49,0-.99,0-1.49,0-64.16.85-104.99,32.06-186.82,32.06-5.51,0-11.2-.14-17.09-.44-41.38-2.13-65.39-11.6-87.98-20.95-4.75,6.04-18.93,20.74-44.5,20.74-8.22,0-17.62-1.52-28.26-5.33-44.24-15.84,39.67-17.74,66.64-17.94-22.82-9.42-45.66-18.02-85.26-18.02-5.99,0-12.36.2-19.18.62-24.98,1.54-45.36,4.91-63.11,9.1-1.07,9.59-6.33,39.72-30.1,39.72-.7,0-1.41-.03-2.15-.08-21.38-1.55,12.05-27.71,26.43-38.22-49.64,12.57-79.34,31.02-136.92,31.02-.31,0-.61,0-.92,0-15.66-.06-30.29-1.09-43.78-2.87-5.23,6.81-21.71,25.89-42.06,25.89-5.05,0-10.33-1.17-15.74-4-22.34-11.65,27.8-20.04,49.82-23.05C43.19,52.25,10.07,32.76,3,13.77c21.58,19.29,71.57,42.96,141.93,42.96,25.98,0,50.83-5.81,76.29-13.15-25-2.63-88.29-10.6-61.09-21.77,6.42-2.64,12.7-3.74,18.69-3.74,23.32,0,42.35,16.62,49.24,23.51,41.41-12.28,84.86-27.59,137.83-27.9.52,0,1.06,0,1.58,0,87.35,0,112.13,42.18,194.97,42.18,1.14,0,2.26-.03,3.39-.04-23.63-9.54-89.75-37.89-48.26-40.67,2.36-.2,4.62-.29,6.78-.29,39,0,47.28,30.59,48.96,40.8,60.39-1.99,105.48-20.02,146.83-27.82-22.71-2.65-69.99-9.84-40.25-21.35,6.35-2.46,12.01-3.49,17.03-3.49M696.9,0c-5.7,0-11.79,1.24-18.11,3.69-5.22,2.02-12.08,5.33-11.4,10.67.61,4.78,6.9,8.2,21.05,11.42,4.55,1.04,9.5,1.94,14.35,2.72-7.85,1.85-15.87,3.94-24.16,6.09-29.59,7.68-63.05,16.36-102.86,17.99-2.64-12.27-12.93-40.71-51.43-40.71-2.27,0-4.63.1-7.03.3-6.97.47-15.14,1.74-16.05,7.47-.64,4.03,1.81,9.75,24.9,21.65,7.78,4.01,16.46,7.96,24.06,11.25-33.54-1.77-56.86-10.73-81.4-20.16-27.79-10.67-56.53-21.71-101.34-21.71-.53,0-1.07,0-1.6,0-47.09.27-86.08,12.1-123.78,23.54-4.34,1.32-8.8,2.67-13.19,3.98-8.17-7.85-27.04-23.13-50.08-23.13-6.76,0-13.43,1.33-19.83,3.96-2.52,1.03-9.21,3.78-8.47,8.96.55,3.86,4.45,8.08,29.03,12.77,8.4,1.6,17.59,2.95,26.01,4.02-19.21,5.01-39.54,8.94-60.64,8.94C76.49,53.74,26.78,31,5,11.54c-.57-.51-1.28-.76-2-.76-.59,0-1.18.17-1.69.52-1.14.78-1.6,2.23-1.12,3.52,7.11,19.1,36.51,36.17,76.83,45.33-5.69,1.01-11.6,2.19-17.07,3.55-19.95,4.94-23.2,9.53-23.8,12.97-.61,3.52,1.79,6.72,7.13,9.51,5.51,2.88,11.27,4.34,17.13,4.34,20.22,0,36.4-16.99,43.36-25.69,13.56,1.72,27.84,2.62,42.46,2.68h.93c40.17,0,67.26-8.97,95.93-18.48,8.66-2.87,17.52-5.81,27.01-8.6-3.36,2.72-6.77,5.63-9.87,8.52-9.85,9.2-13.64,15.42-12.28,20.15.95,3.33,4.14,5.21,9.48,5.6.79.06,1.59.09,2.36.09,24.65,0,31.18-28.52,32.81-40.27,19.31-4.43,39.15-7.23,60.58-8.56,6.58-.41,12.97-.61,18.99-.61,30.65,0,50.71,5.02,70.15,12.26-9.79.24-21.5.69-32.2,1.55-9.55.76-17.15,1.75-22.6,2.95-8.04,1.76-11.72,3.97-12.3,7.39-.73,4.3,3.49,7.67,14.57,11.64,10.2,3.65,20.04,5.5,29.27,5.5,24.59,0,39.18-12.91,45.4-20.12,20.04,8.28,45.15,18.17,86.92,20.32,5.8.3,11.6.45,17.25.45,44.31,0,76.19-8.92,107.03-17.55,25.96-7.26,50.48-14.12,79.83-14.51.48,0,.97,0,1.45,0,.05,0,.09,0,.14,0-8.77,3.84-19.5,8.72-29.17,13.65-25.58,13.03-28.38,18.47-27.59,22.41,1,4.97,8.28,5.61,14.5,5.61.3,0,.6,0,.91,0,39.67-.45,56.08-28.22,61.21-39.88,40.27,7.24,64.45,34.63,72.5,43.75,2.7,3.06,3.43,3.88,5.05,3.88.99,0,1.93-.48,2.5-1.29.98-1.38.47-2.87.25-3.51,0-.03-.02-.05-.03-.08-5.02-13.37-17.88-27.77-34.42-38.51-14.01-9.1-37.29-19.95-68.63-19.95-7.05,0-14.42.53-22.47,1.63-4.32-8.19-14.87-22.9-34.82-22.9h0Z"/>
      </g>
      <path class="cls-1" d="M769.54,36.44c-14.36,16.5-37.7,34.97-60.74,33.18,0,0,0-.2,0-.2,1.47-.23,2.94-.31,4.38-.61,10.12-1.67,19.71-5.56,28.67-10.52,10.15-5.93,19.47-13.4,27.54-21.97,0,0,.15.13.15.13h0Z"/>
      <path class="cls-1" d="M458.68,43.34c-19.83,8.61-48.55,16.52-69.6,9.14-1.51-.51-2.98-1.16-4.42-1.82,0,0,.07-.19.07-.19,1.55.37,3.04.85,4.6,1.12,16.94,3.46,34.61,1.72,51.25-2.63,6.1-1.58,12.15-3.47,18.02-5.81l.08.18h0Z"/>
      <path class="cls-1" d="M724.2,25.96c-6.35-6.05-14.65-9.73-23.06-11.87-6.38-1.39-12.92-1.84-19.44-2.13-2.2-.06-4.4,0-6.61-.12,0,0-.02-.2-.02-.2,8.73-2.04,17.9-1.66,26.48.9,8.49,2.54,16.74,6.72,22.8,13.28,0,0-.15.13-.15.13h0Z"/>
      <path class="cls-1" d="M566.47,50.5c-12.66-13.34-28.84-23.71-46.9-27.71-2.56-.56-5.17-.94-7.82-1.25v-.2c10.77-1.09,21.55,2.73,30.6,8.35,4.59,2.76,8.92,5.93,12.99,9.38,4.04,3.49,7.86,7.22,11.28,11.29,0,0-.15.13-.15.13h0Z"/>
      <path class="cls-1" d="M285.99,35.62c-2.11,7.63-6.07,14.71-11.34,20.64-5.12,6.13-12.15,10.7-19.97,12.44,0,0-.07-.19-.07-.19.85-.52,1.72-.97,2.57-1.45,9.29-5.08,17.9-11.85,23.47-21.01,2.08-3.28,3.86-6.79,5.14-10.48,0,0,.19.05.19.05h0Z"/>
      <path class="cls-1" d="M95.78,63.27c-6.65,6.5-14.8,11.43-23.62,14.43-8.79,3.26-18.64,3.79-27.6.97,0,0,.04-.2.04-.2,5.79.31,11.4.52,17.07-.33,3.28-.39,6.86-.98,10.01-1.97,8.75-2.59,17.03-7.06,23.96-13.04,0,0,.14.14.14.14h0Z"/>
      <path class="cls-1" d="M220.49,39.84c-15.4-8.7-33.1-14.01-50.87-12.87-2.52.19-5.02.54-7.55.99l-.06-.19c14.68-6.11,31.13-1.42,45.06,4.6,4.68,2.12,9.23,4.51,13.53,7.31,0,0-.11.17-.11.17h0Z"/>
    </g>
  </g>
</svg>