<?xml version="1.0" encoding="UTF-8"?>
<svg id="Layer_2" data-name="Layer 2" xmlns="http://www.w3.org/2000/svg" viewBox="0 0 857.6 90.51">
  <defs>
    <style>
      .cls-1 {
        fill: #fff;
      }

      .cls-2 {
        fill: #e42038;
      }
    </style>
  </defs>
  <g id="Bottom">
    <g>
      <g>
        <path class="cls-2" d="M797.19,89.01c-20.1,0-36.22-17.5-42.71-25.79-13.76,1.78-28.26,2.71-43.12,2.77h-.92c-39.93,0-66.9-8.94-95.46-18.4-10.86-3.6-22.03-7.3-34.37-10.69,14.91,11.4,29.61,24.75,27.59,31.78-.76,2.66-3.5,4.18-8.14,4.52-.76.06-1.52.08-2.25.08-24.21,0-30.12-29.33-31.46-40-19.71-4.59-39.96-7.48-61.84-8.83-6.61-.41-13.03-.61-19.09-.61-34.65,0-55.84,6.37-77.8,15.11,10.84.17,26.11.61,39.73,1.7,28.75,2.29,33.03,6.07,33.55,9.09.56,3.33-3.63,6.41-13.59,9.97-10.04,3.59-19.71,5.42-28.76,5.42-24.97,0-39.35-13.63-44.96-20.42-20.11,8.32-45.21,18.45-87.44,20.63-5.77.29-11.55.44-17.17.44-44.1,0-75.89-8.89-106.63-17.49-26.06-7.29-50.67-14.17-80.21-14.57-.49,0-.98,0-1.46,0-2.29,0-4.6.07-6.91.21,9.48,4.06,23.2,10.14,35.25,16.28,24.9,12.68,27.4,17.76,26.8,20.77-.61,3.04-4.63,4.4-13.03,4.4-.29,0-.59,0-.9,0-40.08-.45-55.88-29.42-60.32-40.06C40.06,42.31,15.22,70.44,7.01,79.74c-2.53,2.86-2.98,3.38-3.93,3.38-.48,0-1-.26-1.28-.66-.53-.75-.23-1.63-.05-2.15,4.92-13.12,17.57-27.24,33.84-37.82,13.84-8.99,36.84-19.71,67.81-19.71,7.29,0,14.92.58,23.32,1.76,3.84-7.66,14.04-23.03,33.98-23.03,5.51,0,11.42,1.21,17.57,3.59,7.55,2.92,10.87,5.81,10.46,9.08-.28,2.16-1.08,8.46-42.02,14.02,10.3,2.24,20.86,4.98,31.89,7.84,29.98,7.78,63.92,16.58,104.45,18.08,2.12-11.11,11.46-40.75,50.21-40.75,2.23,0,4.55.1,6.9.3,9.44.63,14.12,2.61,14.7,6.22.49,3.04-1.48,8.42-24.1,20.08-10.44,5.38-22.5,10.65-31.39,14.37,38.21-.66,63.37-10.33,89.96-20.54,27.67-10.62,56.27-21.61,100.8-21.61h1.59c46.87.28,85.75,12.07,123.35,23.48,4.71,1.43,9.39,2.85,14.04,4.23,7.65-7.5,26.55-23.32,49.67-23.32,6.57,0,13.04,1.3,19.26,3.85,3.49,1.43,8.07,3.76,7.55,7.36-.43,2.97-3.97,6.95-27.83,11.51-11,2.1-23.39,3.76-33.58,4.94,21.48,5.95,44.47,11,68.49,11,68.86,0,118.95-22.94,140.92-42.58.28-.25.64-.38,1-.38.29,0,.59.09.85.26.57.39.8,1.12.56,1.76-7.38,19.83-39.71,37.48-83.48,46.02,30.39,4.71,46.34,10.28,47.44,16.6.74,4.23-4.6,7.01-6.35,7.92-5.3,2.76-10.82,4.17-16.43,4.17h0Z"/>
        <path class="cls-1" d="M160.7,3c5.02,0,10.68,1.03,17.03,3.49,29.73,11.51-17.55,18.71-40.25,21.35,41.35,7.8,86.44,25.83,146.83,27.82,1.68-10.21,9.97-40.8,48.96-40.8,2.16,0,4.42.09,6.78.29,41.49,2.77-24.63,31.13-48.26,40.67,1.13.01,2.25.04,3.39.04,82.84,0,107.62-42.19,194.97-42.18.52,0,1.05,0,1.58,0,52.97.31,96.42,15.62,137.83,27.9,6.89-6.89,25.93-23.51,49.24-23.51,5.99,0,12.27,1.1,18.69,3.74,27.2,11.17-36.08,19.15-61.09,21.77,25.46,7.35,50.31,13.15,76.29,13.15,70.35,0,120.35-23.68,141.93-42.96-7.07,18.98-40.19,38.48-91.5,46.69,22.03,3.01,72.16,11.41,49.82,23.05-5.41,2.82-10.69,4-15.74,4-20.35,0-36.83-19.08-42.06-25.89-13.49,1.79-28.12,2.81-43.78,2.87-.31,0-.61,0-.92,0-57.58,0-87.28-18.44-136.92-31.02,14.38,10.51,47.82,36.67,26.43,38.22-.73.05-1.45.08-2.15.08-23.76,0-29.02-30.13-30.1-39.72-17.76-4.19-38.13-7.56-63.11-9.1-6.82-.42-13.19-.62-19.18-.62-39.6,0-62.44,8.61-85.26,18.02,26.96.21,110.88,2.1,66.64,17.94-10.64,3.81-20.04,5.33-28.26,5.33-25.57,0-39.75-14.69-44.5-20.74-22.59,9.35-46.6,18.81-87.98,20.95-5.9.3-11.59.44-17.09.44-81.83,0-122.66-31.2-186.82-32.06-.5,0-.99,0-1.49,0-4.51,0-8.86.26-13.06.73,22.31,9.36,94.71,40.93,55.17,40.93-.29,0-.58,0-.88,0-40.41-.45-55.46-30.2-59.39-40.24C31.44,41.7,4.75,81.61,3.08,81.61c-.13,0-.11-.26.09-.82C11.96,57.35,49.62,24.27,103.41,24.27c8.01,0,16.05.71,24.19,1.91,3.18-6.73,13.02-23.18,33.11-23.18M160.7,0S160.7,0,160.7,0c-19.95,0-30.5,14.71-34.82,22.9-8.05-1.1-15.42-1.63-22.47-1.63-31.34,0-54.62,10.85-68.63,19.95C18.24,51.97,5.38,66.37.36,79.74c0,.03-.02.05-.03.08-.22.64-.74,2.14.25,3.51.57.81,1.51,1.29,2.5,1.29,1.62,0,2.35-.82,5.05-3.88,8.05-9.11,32.22-36.5,72.5-43.75,5.14,11.66,21.54,39.44,61.21,39.88.31,0,.62,0,.91,0,6.23,0,13.5-.64,14.5-5.61.79-3.94-2-9.38-27.58-22.41-9.67-4.92-20.4-9.81-29.17-13.65.05,0,.09,0,.14,0,.48,0,.97,0,1.45,0,29.35.39,53.87,7.25,79.83,14.51,30.84,8.63,62.73,17.55,107.03,17.55,5.65,0,11.45-.15,17.25-.45,41.78-2.15,66.88-12.04,86.92-20.32,6.22,7.2,20.81,20.12,45.4,20.12,9.22,0,19.07-1.85,29.27-5.5,11.08-3.97,15.3-7.34,14.57-11.64-.58-3.42-4.26-5.63-12.3-7.39-5.45-1.19-13.05-2.18-22.6-2.95-10.7-.85-22.41-1.31-32.2-1.55,19.44-7.24,39.5-12.26,70.15-12.26,6.03,0,12.42.21,18.99.61,21.43,1.32,41.27,4.12,60.58,8.56,1.63,11.76,8.16,40.27,32.81,40.27.77,0,1.57-.03,2.36-.09,5.33-.39,8.52-2.27,9.47-5.6,1.36-4.73-2.43-10.95-12.28-20.15-3.1-2.89-6.5-5.8-9.87-8.52,9.49,2.79,18.35,5.73,27.01,8.6,28.68,9.5,55.76,18.48,95.93,18.48h.93c14.62-.06,28.9-.96,42.46-2.68,6.96,8.7,23.15,25.69,43.36,25.69,5.85,0,11.61-1.46,17.13-4.34,5.35-2.79,7.75-5.99,7.13-9.51-.6-3.44-3.85-8.03-23.8-12.97-5.46-1.35-11.37-2.54-17.07-3.55,40.32-9.15,69.72-26.23,76.83-45.33.48-1.29.02-2.75-1.12-3.52-.51-.35-1.1-.52-1.69-.52-.72,0-1.43.26-2,.76-21.78,19.47-71.49,42.2-139.93,42.2-21.1,0-41.43-3.94-60.64-8.94,8.42-1.07,17.61-2.42,26.01-4.02,24.58-4.7,28.48-8.91,29.03-12.77.74-5.18-5.95-7.93-8.47-8.96-6.39-2.63-13.07-3.96-19.83-3.96-23.04,0-41.91,15.28-50.08,23.13-4.39-1.31-8.85-2.66-13.19-3.98-37.7-11.44-76.69-23.27-123.78-23.54-.53,0-1.07,0-1.6,0-44.81,0-73.55,11.04-101.34,21.71-24.54,9.42-47.86,18.38-81.4,20.16,7.6-3.29,16.28-7.24,24.06-11.25,23.09-11.9,25.54-17.62,24.9-21.65-.92-5.74-9.09-7.01-16.1-7.48-2.34-.2-4.71-.3-6.98-.3-38.49,0-48.79,28.43-51.43,40.71-39.82-1.63-73.27-10.31-102.86-17.99-8.29-2.15-16.31-4.23-24.16-6.09,4.85-.78,9.8-1.68,14.35-2.72,14.15-3.22,20.44-6.64,21.05-11.42.68-5.34-6.18-8.65-11.4-10.67C172.49,1.24,166.4,0,160.7,0h0Z"/>
      </g>
      <path class="cls-1" d="M88.21,36.31c15.06,15.87,34.4,28.73,56.21,32.49,1.45.3,2.91.39,4.38.61,0,0,0,.2,0,.2-12.01.95-23.88-3.58-33.87-9.96-5.06-3.16-9.85-6.72-14.34-10.61-4.47-3.91-8.71-8.08-12.53-12.61,0,0,.15-.13.15-.13h0Z"/>
      <path class="cls-1" d="M399,43.16c21.85,8.37,46.06,13.09,69.27,8.45,1.55-.27,3.05-.75,4.6-1.12,0,0,.07.19.07.19-1.44.66-2.91,1.3-4.42,1.82-16.84,5.76-35.13,2.14-51.77-2.55-6.07-1.85-12.05-3.99-17.83-6.59l.08-.18h0Z"/>
      <path class="cls-1" d="M133.25,25.82c6.06-6.56,14.31-10.74,22.8-13.28,8.58-2.56,17.74-2.94,26.48-.9,0,0-.02.2-.02.2-2.21.13-4.41.06-6.61.12-6.52.29-13.06.73-19.44,2.13-8.41,2.14-16.7,5.82-23.06,11.87,0,0-.15-.13-.15-.13h0Z"/>
      <path class="cls-1" d="M290.98,50.37c12.97-14.95,34.04-31.08,54.87-29.03,0,0,0,.2,0,.2-2.65.31-5.25.7-7.82,1.25-12.82,2.9-24.86,8.84-35.13,17.06-4.17,3.25-8.15,6.77-11.77,10.65l-.15-.13h0Z"/>
      <path class="cls-1" d="M571.81,35.56c4.92,14.09,15.65,24.58,28.61,31.49.85.48,1.72.93,2.57,1.45l-.07.19c-7.81-1.74-14.85-6.31-19.97-12.44-5.27-5.92-9.23-13.01-11.34-20.64,0,0,.19-.05.19-.05h0Z"/>
      <path class="cls-1" d="M761.96,63.13c8.66,7.45,19.35,12.63,30.6,14.57,1.16.13,3.92.54,5.05.68,5.12.53,10.16.4,15.39.09,0,0,.04.2.04.2-8.96,2.82-18.81,2.29-27.6-.97-8.82-3-16.97-7.93-23.62-14.43,0,0,.14-.14.14-.14h0Z"/>
      <path class="cls-1" d="M637.01,39.67c16-10.04,40.09-19.68,58.59-11.9,0,0-.06.19-.06.19-2.53-.46-5.04-.8-7.55-.99-12.63-.76-25.33,1.56-37.06,6.32-4.74,1.86-9.39,4-13.81,6.55,0,0-.11-.17-.11-.17h0Z"/>
    </g>
  </g>
</svg>