<?xml version="1.0" encoding="UTF-8"?>
<svg id="Layer_2" data-name="Layer 2" xmlns="http://www.w3.org/2000/svg" viewBox="0 0 243.48 752.23">
  <defs>
    <style>
      .cls-1 {
        fill: #fff;
      }

      .cls-2 {
        fill: #e42038;
      }
    </style>
  </defs>
  <g id="Games">
    <g>
      <g>
        <path class="cls-2" d="M77.58,750.73c-.68,0-1.27-.33-1.59-.89-.76-1.33.18-2.91,3.29-8.16,5.83-9.84,17.85-30.1,17.86-52.22-15.75-1.71-59.79-11.39-57.92-65.57.07-4.43.29-18.02,8.05-18.02,12.02,0,34.78,39.13,49.19,66.4-3.23-47.41-18.11-77.51-33.85-109.35-16.28-32.95-33.12-67.01-35.94-121.85-2.91-56.57,10.11-104.39,22.71-150.64,1.59-5.84,3.17-11.63,4.69-17.38-12.07-9.91-46-42.25-30.81-81.56,2.45-6.34,5.19-9.42,8.38-9.42,3.58,0,9.24,3.33,17.11,32.1,3.84,14.03,7.11,30.06,9.45,42.8,6.7-27.07,12.2-56.02,10.47-85.89C63.9,87.91,29.76,29.16,2,4.11c-.52-.47-.64-1.22-.31-1.83.27-.49.78-.78,1.32-.78.13,0,.26.02.4.05,27.27,7.47,53.36,46.17,67.62,99.61,1.15-10.53,2.85-23.13,5.26-34.12,3.97-18.13,8.8-26.94,14.75-26.94,3.07,0,6.06,2.29,9.15,7.01,21.04,32.06-12.65,63.2-24.76,72.87,3.35,16.49,5.61,33.95,6.73,51.92,3,48.78-7.11,82.25-17.81,117.69-4.23,13.99-8.58,28.4-12.36,44.37,13.6-18.35,30.19-37.62,39.91-37.62,2.89,0,6.55,1.62,7.62,9.35,4.36,31.32-36.49,41.05-50.84,43.49-4.77,24.23-7.23,48.97-7.51,75.58-.59,56.79,11.19,86.94,27.18,117.98-1.4-32.48-2-80.98,6.22-89.62,1.03-1.08,2.21-1.63,3.49-1.63,3.78,0,7.83,4.93,12.75,15.52,23.75,51.17-4.17,80.99-14.94,90.01,12.5,23.63,27.8,53.16,33.66,104.02,2.86,24.92.38,46.02-7.35,62.71-6.94,14.98-16.43,22.51-21.46,25.66-1.51.95-2.39,1.32-3.11,1.32Z"/>
        <path class="cls-1" d="M3,3c25.81,7.07,54.12,45.54,68.65,106.84,2.06-22.27,7.72-68.24,19.37-68.24,2.38,0,5,1.91,7.9,6.33,20.85,31.77-14.29,62.91-25.16,71.44,3.32,16.14,5.71,33.73,6.88,52.62,4.32,70.21-18.38,107.55-31.76,168.76,10.12-14.13,32.07-42.91,43-42.91,3.12,0,5.34,2.35,6.13,8.06,4.28,30.75-37.53,39.88-50.62,41.97-4.35,21.76-7.42,46.61-7.74,76.88-.66,62.84,14.2,93.84,30.49,124.71-1.29-26.1-3.68-96.47,7.9-96.46,2.86,0,6.58,4.31,11.38,14.65,23.94,51.59-5.27,80.81-15.48,89,14.05,26.54,28.34,54.79,34.07,104.57,6.48,56.54-16.36,79.56-28.12,86.93-1.18.74-1.92,1.09-2.31,1.09-3.5,0,21.74-28.44,21.05-61.14-14.5-1.31-59.79-9.76-57.91-64.16.19-11.82,2.67-16.57,6.56-16.57,12.64,0,40.05,50.43,51.05,71.69-.06-1.37-.1-2.71-.18-4.09-5.81-100.58-64.46-126.96-69.96-233.97-3.28-63.95,14.11-117.57,27.6-168.5-12.16-9.79-46.15-41.55-31.11-80.47,2.29-5.92,4.64-8.46,6.99-8.46,11.01,0,21.99,55.81,26.31,80.52,8.02-31.3,14.03-61.73,12.22-93.09C65.29,86.07,30.23,27.55,3,3M3,0C1.92,0,.9.58.37,1.56-.3,2.78-.04,4.3.99,5.23c27.56,24.85,61.43,83.22,66.21,165.93,1.57,27.2-2.9,53.68-8.79,78.67-2.2-11.38-5-24.41-8.19-36.06-2.61-9.55-5.2-17.08-7.7-22.37-2.19-4.65-5.7-10.83-10.86-10.83-5.78,0-8.79,7.82-9.78,10.38-6.8,17.59-4.93,35.67,5.56,53.74,7.73,13.33,18.41,23.45,24.95,28.9-1.46,5.47-2.97,11.04-4.45,16.45-12.62,46.36-25.68,94.3-22.76,151.11,2.83,55.14,19.74,89.35,36.09,122.44,14.86,30.06,28.95,58.57,33.1,101.62-5.16-9.52-11.77-21.2-18.44-31.58-16.84-26.21-24.42-29.25-28.66-29.25-9.23,0-9.48,14.64-9.56,19.49-1.84,53.95,40.78,64.77,57.91,66.92-.48,21.2-11.99,40.6-17.64,50.13-3.45,5.82-4.49,7.58-3.3,9.67.59,1.03,1.67,1.65,2.89,1.65,1.05,0,2.11-.42,3.91-1.55,5.18-3.24,14.92-10.97,22.03-26.3,7.85-16.94,10.37-38.31,7.48-63.51-5.8-50.39-20.81-79.92-33.26-103.49,11.57-10.08,37.95-40.28,14.41-91.01-5.33-11.49-9.55-16.39-14.11-16.39-1.18,0-2.92.36-4.58,2.1-2.8,2.94-6.61,10.72-7.33,44.08-.29,13.65.02,28.26.43,39.77-14.3-28.82-24.47-58.45-23.92-111.16.27-26.15,2.66-50.48,7.28-74.3,15.53-2.77,55.49-13.08,51.05-44.99-1.28-9.26-6.26-10.64-9.11-10.64-5.8,0-13.43,5.44-24.02,17.14-4.41,4.87-8.79,10.24-12.71,15.32,3.34-13.19,7.02-25.38,10.61-37.27,10.74-35.57,20.89-69.17,17.88-118.22-1.1-17.71-3.31-34.94-6.57-51.23,6.36-5.16,16.68-14.64,23.76-26.69,9.84-16.75,10.05-33.21.61-47.6-3.39-5.17-6.79-7.68-10.4-7.68-6.86,0-12.01,8.94-16.22,28.12-1.87,8.52-3.31,17.99-4.4,26.72C55.63,43.3,30.29,7.36,3.79.11c-.26-.07-.53-.11-.79-.11h0Z"/>
      </g>
      <path class="cls-1" d="M74,550.62c9.63-26.66,14.86-56.66,6.54-84.3-.51-1.85-1.28-3.6-1.93-5.42,0,0,.18-.09.18-.09.92,1.69,1.85,3.4,2.6,5.19,5.48,12.54,6.02,26.63,4.45,40.06-.85,7.69-2.33,15.29-4.28,22.75-2,7.45-4.4,14.79-7.38,21.89l-.18-.08h0Z"/>
      <path class="cls-1" d="M91.14,680.43c-20.04-14.05-43.01-37.95-42.54-63.97,0,0,.2-.01.2-.01.32,1.63.48,3.26.89,4.85,2.38,11.18,7.63,21.57,14.05,30.95,7.65,10.65,17.02,20.12,27.5,28.02,0,0-.11.17-.11.17h0Z"/>
      <path class="cls-1" d="M51.79,342.66c19.06-7.17,33.51-21.72,41.78-40.19,0,0,.19.06.19.06-3.21,15.16-15.11,26.75-28.12,34.26-4.4,2.47-8.99,4.58-13.79,6.06l-.06-.19h0Z"/>
      <path class="cls-1" d="M75.31,111.02c15.15-17.55,21.3-40,16.9-62.79,0,0,.19-.05.19-.05.73,1.92,1.41,4.13,1.88,6.14,3.6,14.84-1.03,30.41-8.56,43.26-2.94,4.88-6.32,9.5-10.28,13.59,0,0-.14-.14-.14-.14h0Z"/>
      <path class="cls-1" d="M52.74,263.62c-14.18-18.26-28.44-46.52-19.96-69.78,0,0,.19.05.19.05-.2,1.56-.55,3.07-.65,4.62-1.77,16.98,3.04,34.06,10.84,49.06,2.84,5.53,6.04,10.9,9.72,15.93,0,0-.16.12-.16.12h0Z"/>
    </g>
    <g>
      <g>
        <path class="cls-2" d="M165.9,750.73c-.72,0-1.59-.37-3.11-1.32-5.04-3.15-14.52-10.68-21.46-25.66-7.73-16.68-10.21-37.78-7.35-62.71,5.86-50.86,21.16-80.39,33.66-104.02-10.77-9.02-38.69-38.84-14.94-90.01,4.91-10.59,8.96-15.52,12.75-15.52,1.28,0,2.46.55,3.49,1.63,8.22,8.64,7.62,57.14,6.22,89.62,15.99-31.04,27.77-61.2,27.18-117.98-.28-26.62-2.73-51.35-7.51-75.58-14.35-2.43-55.2-12.17-50.84-43.49,1.07-7.73,4.73-9.35,7.62-9.35,9.72,0,26.32,19.27,39.91,37.62-3.78-15.98-8.13-30.38-12.36-44.37-10.71-35.44-20.82-68.91-17.81-117.69,1.12-17.97,3.38-35.44,6.73-51.92-12.11-9.67-45.81-40.81-24.76-72.87,3.09-4.71,6.08-7.01,9.15-7.01,5.95,0,10.77,8.81,14.75,26.94,2.41,10.99,4.11,23.59,5.26,34.12C186.73,47.72,212.82,9.02,240.09,1.55c.13-.04.26-.05.4-.05.54,0,1.05.29,1.32.78.33.61.2,1.37-.31,1.83-27.77,25.04-61.9,83.79-66.71,166.96-1.73,29.87,3.78,58.82,10.47,85.89,2.34-12.74,5.61-28.77,9.45-42.8,7.87-28.77,13.54-32.1,17.11-32.1,3.19,0,5.94,3.08,8.38,9.42,15.2,39.31-18.73,71.65-30.81,81.56,1.53,5.76,3.11,11.55,4.7,17.39,12.59,46.25,25.61,94.07,22.71,150.64-2.82,54.83-19.65,88.9-35.94,121.85-15.73,31.83-30.61,61.94-33.85,109.34,14.41-27.27,37.18-66.4,49.19-66.4,7.77,0,7.98,13.58,8.06,18.04,1.87,54.15-42.17,63.83-57.93,65.54.02,22.12,12.03,42.38,17.86,52.22,3.11,5.25,4.05,6.83,3.29,8.16-.32.56-.91.89-1.59.89h0Z"/>
        <path class="cls-1" d="M240.48,3c-27.23,24.55-62.29,83.07-67.2,167.99-1.81,31.36,4.2,61.79,12.22,93.09,4.32-24.71,15.31-80.52,26.31-80.52,2.35,0,4.7,2.54,6.99,8.46,15.04,38.92-18.95,70.68-31.11,80.47,13.49,50.93,30.89,104.55,27.6,168.5-5.5,107-64.15,133.39-69.96,233.97-.08,1.38-.12,2.73-.18,4.09,11-21.26,38.41-71.69,51.05-71.69,3.88,0,6.37,4.75,6.56,16.57,1.87,54.4-43.42,62.85-57.91,64.16-.69,32.7,24.55,61.14,21.05,61.14-.39,0-1.14-.35-2.31-1.09-11.76-7.36-34.6-30.38-28.12-86.93,5.73-49.78,20.02-78.03,34.07-104.57-10.21-8.19-39.42-37.41-15.48-89,4.8-10.35,8.52-14.65,11.38-14.65,11.58,0,9.18,70.36,7.9,96.46,16.29-30.87,31.15-61.87,30.49-124.71-.32-30.27-3.39-55.12-7.74-76.88-13.09-2.09-54.9-11.22-50.62-41.97.79-5.71,3.01-8.06,6.13-8.06,10.93,0,32.87,28.77,43,42.91-13.38-61.21-36.08-98.54-31.76-168.76,1.17-18.89,3.56-36.47,6.88-52.62-10.87-8.53-46.02-39.68-25.16-71.44,2.89-4.42,5.52-6.33,7.9-6.33,11.65,0,17.31,45.96,19.37,68.24C186.37,48.54,214.67,10.07,240.48,3M240.48,0c-.26,0-.53.03-.79.11-26.5,7.25-51.83,43.2-66.61,93.34-1.09-8.74-2.54-18.21-4.4-26.72-4.21-19.19-9.36-28.12-16.21-28.12-3.61,0-7.02,2.51-10.41,7.68-9.45,14.39-9.24,30.85.61,47.6,7.09,12.05,17.4,21.53,23.76,26.69-3.26,16.29-5.47,33.52-6.57,51.23-3.02,49.05,7.13,82.65,17.88,118.22,3.59,11.89,7.27,24.08,10.61,37.27-3.92-5.07-8.3-10.45-12.71-15.32-10.59-11.69-18.23-17.14-24.02-17.14-2.85,0-7.82,1.38-9.11,10.64-4.44,31.91,35.52,42.22,51.05,44.99,4.63,23.82,7.01,48.14,7.28,74.3.55,52.71-9.62,82.34-23.92,111.16.41-11.51.72-26.11.43-39.77-.71-33.36-4.52-41.14-7.33-44.08-1.65-1.73-3.4-2.1-4.58-2.1-4.56,0-8.77,4.9-14.11,16.39-23.54,50.73,2.84,80.92,14.41,91.01-12.45,23.57-27.46,53.1-33.26,103.49-2.89,25.2-.37,46.57,7.48,63.51,7.11,15.33,16.85,23.06,22.03,26.3,1.8,1.13,2.86,1.55,3.91,1.55,1.22,0,2.3-.62,2.89-1.65,1.19-2.09.15-3.84-3.3-9.67-5.65-9.52-17.15-28.93-17.64-50.13,17.13-2.15,59.75-12.98,57.91-66.92-.08-4.86-.33-19.49-9.55-19.49-4.24,0-11.82,3.03-28.66,29.25-6.58,10.24-13.05,21.61-18.44,31.57,4.16-43.04,18.25-71.55,33.1-101.6,16.35-33.08,33.26-67.29,36.09-122.44,2.92-56.81-10.13-104.75-22.76-151.11-1.47-5.41-2.99-10.98-4.45-16.45,6.54-5.45,17.22-15.57,24.95-28.9,10.48-18.08,12.35-36.16,5.56-53.74-.99-2.57-4.01-10.38-9.78-10.38-5.17,0-8.67,6.18-10.86,10.83-2.49,5.3-5.08,12.83-7.7,22.37-3.19,11.66-5.99,24.68-8.19,36.06-5.89-24.99-10.37-51.47-8.79-78.67,4.78-82.71,38.65-141.08,66.21-165.93,1.03-.93,1.29-2.45.62-3.67-.54-.98-1.56-1.56-2.63-1.56h0Z"/>
      </g>
      <path class="cls-1" d="M169.3,550.7c-9.94-24.48-18.15-59.57-7.21-84.7.75-1.79,1.68-3.5,2.6-5.19l.18.09c-.64,1.82-1.41,3.57-1.93,5.42-6.21,20.14-4.76,41.92-.05,62.25,1.73,7.47,3.86,14.87,6.6,22.05,0,0-.18.08-.18.08h0Z"/>
      <path class="cls-1" d="M152.23,680.26c19.32-14.75,36.15-34.82,41.55-58.97.42-1.59.58-3.22.89-4.85,0,0,.2.01.2.01.27,13.48-5.76,26.25-13.85,36.73-4.02,5.29-8.48,10.23-13.28,14.78-4.83,4.52-9.93,8.75-15.4,12.46,0,0-.11-.17-.11-.17h0Z"/>
      <path class="cls-1" d="M191.63,342.85c-18.58-6.08-37.52-20.38-41.91-40.32,0,0,.19-.06.19-.06,6.19,13.56,15.66,25.61,28.44,33.46,4.2,2.66,8.65,5,13.34,6.72l-.06.19h0Z"/>
      <path class="cls-1" d="M168.03,111.16c-13.79-14.71-23.58-36.52-18.84-56.85.47-2.01,1.15-4.22,1.88-6.14,0,0,.19.05.19.05-.98,5.6-1.56,11.17-1.33,16.75.23,11.2,3.24,22.27,8.68,32.11,2.68,4.95,5.81,9.7,9.55,13.94l-.14.14h0Z"/>
      <path class="cls-1" d="M190.59,263.5c13.29-18.73,22.91-41.67,20.57-64.98-.1-1.55-.45-3.06-.65-4.62,0,0,.19-.05.19-.05,4.42,12,2.67,25.34-1.67,37.1-2.13,5.92-4.77,11.64-7.84,17.1-3.1,5.44-6.54,10.69-10.45,15.58,0,0-.16-.12-.16-.12h0Z"/>
    </g>
  </g>
</svg>