<?xml version="1.0" encoding="UTF-8"?>
<svg id="Layer_2" data-name="Layer 2" xmlns="http://www.w3.org/2000/svg" viewBox="0 0 1891.22 90.51">
  <defs>
    <style>
      .cls-1 {
        fill: #fff;
      }

      .cls-2 {
        fill: #e42038;
      }
    </style>
  </defs>
  <g id="Mid">
    <g>
      <g>
        <path class="cls-2" d="M765.01,89.01c-6.02,0-12.48-1.2-19.2-3.57-8.19-2.89-11.83-5.76-11.44-9.03.25-2.18,1-8.51,46.03-14.09-11.3-2.24-22.88-4.98-34.98-7.83-32.97-7.79-70.3-16.61-114.92-18.09-2.32,11.08-12.54,40.76-55,40.76-2.44,0-4.98-.1-7.56-.29-10.39-.63-15.49-2.64-16.03-6.31-.49-3.32,2.09-8.6,26.57-20.07,11.42-5.35,24.58-10.59,34.3-14.29-42.04.66-69.71,10.33-98.94,20.55-30.36,10.62-61.75,21.59-110.6,21.59h-1.74c-51.44-.28-94.11-12.07-135.39-23.47-5.23-1.44-10.41-2.88-15.56-4.27-8.33,7.45-29.09,23.35-54.47,23.35-7.17,0-14.26-1.29-21.05-3.83-3.77-1.41-8.73-3.7-8.26-7.31.4-2.99,4.2-7,30.38-11.57,12.1-2.11,25.73-3.77,36.95-4.95-23.6-5.95-48.85-11-75.24-11C83.17,35.27,28.11,58.23,3.95,77.9c-.27.22-.61.34-.95.34-.31,0-.63-.1-.89-.29-.55-.41-.75-1.14-.5-1.77,8.1-19.82,43.54-37.45,91.55-45.97-33.5-4.73-50.97-10.34-52-16.7-.68-4.22,5.07-6.95,6.96-7.85,5.78-2.75,11.81-4.14,17.93-4.14,22.03,0,39.72,17.56,46.81,25.8,15.13-1.79,31.09-2.73,47.45-2.79h1.01c43.8,0,73.41,8.93,104.75,18.39,11.99,3.62,24.33,7.34,37.97,10.75-21.73-15.09-31.93-25.73-30.35-31.65.75-2.81,3.65-4.34,8.87-4.68.83-.05,1.65-.08,2.46-.08,26.44,0,32.92,29.3,34.4,39.98,21.69,4.6,43.96,7.5,68.04,8.85,7.26.41,14.32.62,20.98.62,38.07,0,61.36-6.37,85.49-15.11-11.94-.17-28.77-.61-43.77-1.7-31.36-2.29-36.11-5.91-36.61-9.16-.52-3.38,3.93-6.34,14.89-9.92,10.99-3.58,21.59-5.4,31.49-5.4,27.45,0,43.22,13.72,49.31,20.47,22.09-8.32,49.66-18.49,96.11-20.67,6.34-.29,12.67-.44,18.84-.44,48.39,0,83.28,8.89,117.02,17.48,28.63,7.29,55.67,14.18,88.15,14.57.54,0,1.08,0,1.62,0,2.54,0,5.09-.07,7.63-.21-10.37-4.04-25.34-10.09-38.53-16.2-27.25-12.62-30.1-17.73-29.54-20.77.57-3.11,4.95-4.49,14.18-4.49.32,0,.65,0,.98,0,44,.45,61.29,29.51,66.12,40.09,45.75-6.97,73.09-35.19,82.13-44.51,2.73-2.82,3.22-3.33,4.16-3.33.49,0,1.02.28,1.3.68.53.77.2,1.65,0,2.17-5.4,13.12-19.29,27.24-37.15,37.81-15.17,8.98-40.38,19.68-74.33,19.68-8.03,0-16.45-.58-25.73-1.78-4.18,7.62-15.35,23.05-37.19,23.05Z"/>
        <path class="cls-1" d="M66.05,3c22.35,0,40.44,19.08,46.19,25.89,14.81-1.79,30.88-2.81,48.08-2.87.34,0,.67,0,1.01,0,63.23,0,95.85,18.44,150.36,31.02-15.8-10.51-52.51-36.67-29.03-38.22.8-.05,1.59-.08,2.36-.08,26.1,0,31.87,30.13,33.05,39.72,19.5,4.19,41.87,7.56,69.31,9.1,7.48.42,14.48.62,21.06.62,43.48,0,68.57-8.61,93.63-18.02-29.61-.21-121.76-2.1-73.18-17.94,11.68-3.81,22-5.33,31.03-5.33,28.09,0,43.65,14.69,48.87,20.74,24.81-9.35,51.17-18.81,96.62-20.95,6.48-.3,12.72-.44,18.77-.44,89.86,0,134.7,31.2,205.16,32.06.55,0,1.09,0,1.63,0,4.95,0,9.73-.26,14.34-.73-24.5-9.36-104-40.93-60.58-40.93.31,0,.64,0,.97,0,44.38.45,60.9,30.2,65.22,40.24,56.06-8.07,85.37-47.99,87.2-47.99.15,0,.12.26-.1.82-9.66,23.44-51.01,56.52-110.07,56.52-8.8,0-17.62-.71-26.56-1.91-3.49,6.73-14.29,23.18-36.36,23.18-5.51,0-11.72-1.03-18.7-3.49-32.65-11.51,19.27-18.71,44.2-21.35-45.41-7.8-94.92-25.83-161.24-27.82-1.85,10.21-10.95,40.8-53.77,40.8-2.38,0-4.86-.09-7.44-.29-45.56-2.77,27.05-31.13,53-40.67-1.24-.01-2.47-.04-3.72-.04-90.97,0-118.18,42.18-214.1,42.18-.57,0-1.16,0-1.73,0-58.17-.31-105.88-15.62-151.36-27.9-7.57,6.89-28.47,23.51-54.08,23.51-6.58,0-13.47-1.1-20.52-3.74-29.87-11.17,39.63-19.15,67.08-21.77-27.96-7.35-55.25-13.15-83.78-13.15C81.6,33.77,26.69,57.45,3,76.74c7.76-18.98,44.13-38.48,100.48-46.69-24.19-3.01-79.25-11.41-54.71-23.05,5.94-2.82,11.74-4,17.28-4M66.05,0c-6.34,0-12.59,1.44-18.57,4.29-2.14,1.02-8.66,4.11-7.8,9.44.6,3.71,4.14,8.16,25.87,13.07,6.01,1.36,12.52,2.55,18.79,3.56C40.21,39.5,8.02,56.54.22,75.6c-.52,1.27-.11,2.73.99,3.55.53.39,1.16.59,1.79.59.67,0,1.34-.23,1.89-.67,23.97-19.51,78.67-42.29,153.96-42.29,23.2,0,45.54,3.94,66.65,8.94-9.26,1.07-19.38,2.42-28.62,4.03-26.91,4.69-31.09,8.95-31.61,12.85-.69,5.21,6.51,7.9,9.22,8.91,6.96,2.61,14.22,3.93,21.57,3.93,25.29,0,46.02-15.41,54.86-23.19,4.91,1.33,9.92,2.72,14.78,4.06,41.37,11.43,84.14,23.25,135.78,23.52.58,0,1.17,0,1.75,0,49.11,0,80.62-11.02,111.1-21.68,27.03-9.45,52.72-18.43,89.71-20.19-8.28,3.27-17.72,7.18-26.2,11.16-25.22,11.82-28.01,17.58-27.41,21.64.86,5.84,9.77,7.12,17.45,7.59,2.57.2,5.15.3,7.63.3,42.08,0,53.32-28.49,56.19-40.72,43.92,1.6,80.78,10.31,113.38,18.01,9.07,2.14,17.86,4.22,26.45,6.07-5.33.78-10.78,1.69-15.78,2.73-15.47,3.21-22.31,6.65-22.87,11.49-.62,5.31,6.32,8.46,12.43,10.62,6.88,2.43,13.51,3.66,19.7,3.66,21.8,0,33.32-14.81,38-22.94,8.94,1.12,17.11,1.67,24.91,1.67,34.29,0,59.76-10.82,75.09-19.89,18.13-10.73,32.24-25.12,37.75-38.49.01-.03.02-.05.03-.08.24-.64.81-2.14-.17-3.56-.57-.83-1.52-1.33-2.53-1.33h0c-1.57,0-2.27.73-5.23,3.78-8.88,9.16-35.6,36.71-80.17,43.89-2.72-5.69-8.06-14.67-17.43-22.69-13.13-11.24-29.8-17.04-49.55-17.25-.34,0-.67,0-1,0-7.22,0-14.73.68-15.66,5.72-.63,3.43,2.17,6.85,9.38,11.41,4.9,3.1,11.96,6.8,21,10.99,10.54,4.89,22.23,9.73,31.79,13.54-.09,0-.18,0-.27,0-.53,0-1.06,0-1.6,0-32.3-.39-59.26-7.26-87.8-14.53-33.83-8.62-68.81-17.53-117.39-17.53-6.19,0-12.55.15-18.91.45-46.02,2.16-73.59,12.12-95.62,20.41-6.69-7.13-22.67-20.21-49.73-20.21-10.06,0-20.82,1.84-31.96,5.48-11.97,3.9-16.57,7.25-15.9,11.57.54,3.48,4.5,5.72,13.23,7.47,5.95,1.19,14.28,2.19,24.75,2.95,11.8.86,24.73,1.32,35.52,1.56-21.37,7.24-43.43,12.26-77.13,12.26-6.63,0-13.66-.21-20.89-.61-23.63-1.33-45.5-4.15-66.79-8.61-1.79-11.76-8.93-40.22-35.73-40.23-.83,0-1.69.03-2.56.09-5.86.39-9.3,2.34-10.22,5.79-1.28,4.82,2.94,11.04,13.71,20.17,3.37,2.86,7.07,5.72,10.71,8.41-10.61-2.83-20.5-5.81-30.16-8.73-31.45-9.49-61.15-18.45-105.18-18.46h-1.02c-16.13.06-31.88.97-46.83,2.71C105.92,17.09,88.17,0,66.05,0h0Z"/>
      </g>
      <path class="cls-1" d="M844.62,54.2c-16.96-16.34-38.37-28.88-61.83-32.51-1.56-.3-3.14-.37-4.72-.6,0,0,0-.2,0-.2,12.85-.94,25.64,3.35,36.67,9.7,5.59,3.12,10.89,6.7,15.92,10.62,5,3.96,9.77,8.19,14.11,12.85l-.15.14h0Z"/>
      <path class="cls-1" d="M503.32,47.35c-24.21-8.45-50.61-13.07-76.07-8.45-1.7.27-3.36.76-5.05,1.13l-.07-.19c12.9-5.56,27.49-5.56,41.18-3.52,6.89.98,13.69,2.42,20.39,4.22,6.68,1.85,13.28,4,19.7,6.62l-.08.19h0Z"/>
      <path class="cls-1" d="M795.14,64.69c-8.73,8.42-20.65,12.86-32.46,14.82-7.13,1.19-14.57.78-21.64-.64,0,0,.02-.2.02-.2,2.41-.11,4.8-.09,7.18-.12,7.1-.29,14.21-.7,21.19-2.07,9.19-2.1,18.37-5.68,25.57-11.93,0,0,.14.14.14.14h0Z"/>
      <path class="cls-1" d="M621.94,40.14c-14.8,15.47-37.97,31.09-60.24,29.03,0,0,0-.2,0-.2,2.13-.25,4.23-.49,6.34-.83,14.62-2.62,28.56-8.57,40.6-17.29,4.63-3.28,9.09-6.86,13.16-10.84,0,0,.15.14.15.14h0Z"/>
      <path class="cls-1" d="M313.56,54.95c-2.94-7.59-7.82-14.44-13.8-19.91-5.32-4.7-11.37-8.47-17.7-11.61-3.59-1.77-3.76-1.97.33-.85,7.07,1.89,13.45,6.04,18.48,11.31,5.85,5.87,10.42,13.09,12.88,21.01,0,0-.19.06-.19.06h0Z"/>
      <path class="cls-1" d="M104.74,27.38c-16.29-12.84-35.71-16.84-56.06-15.34,0,0-.04-.2-.04-.2,9.76-2.79,20.34-2.32,29.96.88,9.65,2.93,18.72,7.84,26.27,14.51,0,0-.13.15-.13.15h0Z"/>
      <path class="cls-1" d="M241.95,50.84c-17.86,10.17-44.19,19.63-64.32,11.9,0,0,.05-.19.05-.19,1.39.18,2.74.48,4.13.59,9.58,1.15,19.28.42,28.77-1.34,10.84-2.27,21.42-6.04,31.27-11.13,0,0,.1.17.1.17h0Z"/>
    </g>
    <g>
      <g>
        <path class="cls-2" d="M1825.16,89.01c-22.03,0-39.72-17.56-46.81-25.8-15.14,1.79-31.1,2.73-47.45,2.79h-1.02c-43.81,0-73.41-8.93-104.74-18.39-11.99-3.62-24.33-7.34-37.97-10.75,21.73,15.09,31.93,25.73,30.35,31.65-.75,2.81-3.65,4.34-8.87,4.68-.83.05-1.65.08-2.46.08-26.44,0-32.92-29.3-34.4-39.98-21.69-4.6-43.96-7.5-68.04-8.85-7.26-.41-14.32-.62-20.98-.62-38.07,0-61.36,6.37-85.49,15.11,11.94.17,28.77.61,43.77,1.71,31.36,2.29,36.11,5.91,36.61,9.16.52,3.38-3.93,6.34-14.89,9.92-10.99,3.58-21.59,5.4-31.49,5.4-27.46,0-43.22-13.72-49.31-20.47-22.09,8.32-49.66,18.49-96.11,20.68-6.33.29-12.67.44-18.84.44-48.39,0-83.28-8.89-117.02-17.48-28.63-7.29-55.67-14.18-88.16-14.57-.54,0-1.08,0-1.61,0-2.54,0-5.09.07-7.64.21,10.37,4.04,25.35,10.09,38.53,16.2,27.25,12.62,30.1,17.73,29.54,20.77-.57,3.11-4.95,4.49-14.18,4.49-.32,0-.65,0-.98,0-44-.45-61.29-29.51-66.12-40.09-45.75,6.97-73.09,35.19-82.13,44.51-2.73,2.82-3.22,3.33-4.16,3.33-.49,0-1.02-.28-1.3-.68-.53-.77-.2-1.65,0-2.17,5.41-13.12,19.29-27.24,37.15-37.81,15.17-8.98,40.38-19.68,74.33-19.68,8.03,0,16.46.58,25.73,1.78,4.18-7.62,15.35-23.05,37.19-23.05,6.02,0,12.48,1.2,19.2,3.57,8.19,2.89,11.83,5.76,11.44,9.03-.25,2.17-1,8.51-46.03,14.09,11.3,2.24,22.88,4.97,34.98,7.83,32.97,7.79,70.3,16.61,114.92,18.1,2.32-11.08,12.54-40.76,55-40.76,2.44,0,4.98.1,7.56.3,10.39.63,15.49,2.64,16.03,6.31.49,3.32-2.09,8.6-26.57,20.07-11.42,5.35-24.58,10.59-34.3,14.29,42.04-.66,69.71-10.33,98.94-20.55,30.36-10.62,61.75-21.59,110.61-21.59h1.74c51.43.28,94.11,12.07,135.38,23.47,5.23,1.44,10.41,2.88,15.57,4.27,8.33-7.45,29.09-23.35,54.47-23.35,7.17,0,14.26,1.29,21.05,3.83,3.77,1.41,8.73,3.7,8.26,7.31-.39,2.99-4.2,7-30.38,11.57-12.1,2.11-25.73,3.77-36.95,4.95,23.6,5.95,48.85,11,75.25,11,75.69,0,130.75-22.96,154.91-42.63.28-.22.61-.34.95-.34.31,0,.63.1.89.29.55.41.75,1.14.5,1.77-8.1,19.82-43.54,37.45-91.55,45.97,33.5,4.72,50.97,10.33,52,16.7.68,4.22-5.07,6.95-6.96,7.85-5.78,2.75-11.81,4.14-17.92,4.14h0Z"/>
        <path class="cls-1" d="M1126.2,3c5.51,0,11.72,1.03,18.7,3.49,32.65,11.51-19.27,18.71-44.2,21.35,45.41,7.8,94.92,25.83,161.24,27.82,1.85-10.21,10.95-40.8,53.77-40.8,2.38,0,4.86.09,7.44.29,45.56,2.77-27.05,31.13-53,40.67,1.24.01,2.47.04,3.72.04,90.97,0,118.18-42.19,214.1-42.18.57,0,1.16,0,1.73,0,58.17.31,105.88,15.62,151.36,27.9,7.57-6.89,28.47-23.51,54.08-23.51,6.58,0,13.47,1.1,20.52,3.74,29.87,11.17-39.62,19.15-67.08,21.77,27.96,7.35,55.25,13.15,83.78,13.15,77.26,0,132.16-23.68,155.86-42.96-7.76,18.98-44.13,38.48-100.48,46.69,24.19,3.01,79.25,11.41,54.71,23.05-5.94,2.82-11.74,4-17.28,4-22.35,0-40.44-19.08-46.19-25.89-14.81,1.79-30.88,2.81-48.08,2.87-.34,0-.67,0-1.01,0-63.23,0-95.85-18.44-150.36-31.02,15.8,10.51,52.51,36.67,29.03,38.22-.8.05-1.59.08-2.36.08-26.1,0-31.87-30.13-33.05-39.72-19.5-4.19-41.87-7.56-69.31-9.1-7.48-.42-14.48-.62-21.06-.62-43.48,0-68.57,8.61-93.63,18.02,29.61.21,121.76,2.1,73.18,17.94-11.68,3.81-22,5.33-31.03,5.33-28.09,0-43.65-14.69-48.87-20.74-24.81,9.35-51.17,18.81-96.62,20.95-6.48.3-12.72.44-18.77.44-89.86,0-134.7-31.2-205.16-32.06-.55,0-1.09,0-1.63,0-4.95,0-9.73.26-14.34.73,24.5,9.36,104,40.93,60.58,40.93-.31,0-.64,0-.97,0-44.38-.45-60.9-30.2-65.22-40.24-56.06,8.07-85.37,47.99-87.2,47.99-.15,0-.12-.26.1-.82,9.66-23.44,51.01-56.52,110.07-56.52,8.8,0,17.62.71,26.56,1.91,3.49-6.73,14.29-23.18,36.36-23.18M1126.2,0v3S1126.2,0,1126.2,0c-21.8,0-33.32,14.81-38,22.94-8.94-1.12-17.11-1.67-24.91-1.67-34.29,0-59.76,10.82-75.09,19.89-18.13,10.73-32.24,25.12-37.75,38.49-.01.03-.02.05-.03.08-.24.64-.81,2.14.17,3.56.57.83,1.52,1.33,2.54,1.33,1.57,0,2.27-.73,5.23-3.78,8.88-9.16,35.6-36.71,80.17-43.9,2.72,5.69,8.06,14.67,17.43,22.69,13.13,11.24,29.8,17.04,49.55,17.25.34,0,.67,0,1,0,7.22,0,14.73-.68,15.66-5.72.63-3.43-2.17-6.85-9.38-11.41-4.9-3.1-11.96-6.8-21-10.99-10.54-4.88-22.22-9.73-31.79-13.54.09,0,.18,0,.27,0,.53,0,1.06,0,1.6,0,32.3.39,59.26,7.26,87.8,14.53,33.83,8.62,68.81,17.53,117.39,17.53,6.19,0,12.55-.15,18.91-.45,46.02-2.16,73.59-12.12,95.62-20.41,6.69,7.13,22.67,20.21,49.73,20.21,10.06,0,20.82-1.84,31.96-5.48,11.97-3.9,16.57-7.25,15.9-11.57-.54-3.48-4.5-5.72-13.23-7.47-5.95-1.19-14.28-2.19-24.75-2.95-11.8-.86-24.73-1.32-35.52-1.56,21.37-7.24,43.43-12.26,77.13-12.26,6.63,0,13.66.21,20.89.61,23.63,1.33,45.5,4.15,66.79,8.61,1.8,11.76,8.93,40.23,35.73,40.23.84,0,1.7-.03,2.56-.09,5.86-.39,9.3-2.34,10.22-5.79,1.28-4.82-2.94-11.04-13.71-20.17-3.37-2.86-7.07-5.72-10.71-8.41,10.61,2.83,20.5,5.81,30.16,8.73,31.45,9.49,61.15,18.46,105.18,18.46h1.02c16.13-.06,31.88-.97,46.83-2.71,7.55,8.63,25.3,25.72,47.42,25.72,6.34,0,12.59-1.44,18.57-4.29,2.14-1.02,8.66-4.11,7.8-9.44-.6-3.71-4.14-8.16-25.87-13.07-6.01-1.36-12.52-2.55-18.79-3.56,44.14-9.14,76.33-26.18,84.12-45.24.52-1.27.11-2.73-.99-3.55-.53-.39-1.16-.59-1.79-.59-.67,0-1.34.23-1.89.67-23.97,19.51-78.67,42.29-153.96,42.29-23.2,0-45.54-3.94-66.65-8.94,9.26-1.07,19.38-2.42,28.62-4.03,26.91-4.69,31.09-8.95,31.61-12.85.69-5.21-6.51-7.9-9.22-8.91-6.96-2.61-14.22-3.93-21.57-3.93-25.29,0-46.02,15.41-54.86,23.19-4.91-1.33-9.92-2.72-14.78-4.06-41.37-11.43-84.14-23.25-135.78-23.52-.58,0-1.17,0-1.75,0-49.11,0-80.62,11.02-111.1,21.68-27.03,9.45-52.72,18.43-89.71,20.19,8.28-3.27,17.72-7.18,26.2-11.16,25.22-11.82,28.01-17.58,27.41-21.64-.86-5.84-9.77-7.12-17.45-7.59-2.57-.2-5.15-.3-7.63-.3-42.08,0-53.32,28.49-56.19,40.72-43.92-1.6-80.78-10.31-113.38-18.01-9.07-2.14-17.86-4.22-26.45-6.07,5.33-.78,10.78-1.69,15.78-2.73,15.47-3.21,22.31-6.65,22.87-11.49.62-5.31-6.32-8.46-12.43-10.62C1139.02,1.23,1132.39,0,1126.2,0h0Z"/>
      </g>
      <path class="cls-1" d="M1046.59,36.31c16.96,16.34,38.37,28.88,61.83,32.51,1.56.3,3.14.37,4.72.6v.2c-12.85.94-25.64-3.35-36.67-9.7-5.59-3.12-10.89-6.7-15.92-10.62-5-3.96-9.77-8.19-14.11-12.85l.15-.14h0Z"/>
      <path class="cls-1" d="M1387.89,43.16c24.21,8.45,50.61,13.07,76.07,8.45,1.7-.27,3.36-.76,5.05-1.13l.07.19c-12.9,5.56-27.49,5.56-41.18,3.52-6.89-.98-13.69-2.42-20.39-4.22-6.68-1.85-13.28-4-19.7-6.62,0,0,.08-.19.08-.19h0Z"/>
      <path class="cls-1" d="M1096.08,25.82c8.73-8.42,20.65-12.86,32.46-14.82,7.13-1.19,14.57-.78,21.64.64,0,0-.02.2-.02.2-2.41.11-4.8.09-7.18.12-7.1.29-14.21.7-21.19,2.07-9.19,2.1-18.37,5.68-25.57,11.93,0,0-.14-.14-.14-.14h0Z"/>
      <path class="cls-1" d="M1269.28,50.37c14.8-15.47,37.97-31.09,60.24-29.03,0,0,0,.2,0,.2-2.13.25-4.23.49-6.34.83-14.62,2.62-28.56,8.57-40.6,17.29-4.63,3.28-9.09,6.86-13.16,10.84l-.15-.14h0Z"/>
      <path class="cls-1" d="M1577.66,35.56c2.94,7.59,7.82,14.44,13.8,19.91,5.32,4.7,11.37,8.47,17.7,11.61,3.59,1.77,3.76,1.97-.33.85-7.07-1.89-13.45-6.04-18.48-11.31-5.85-5.87-10.42-13.09-12.88-21.01,0,0,.19-.06.19-.06h0Z"/>
      <path class="cls-1" d="M1786.47,63.12c16.29,12.84,35.71,16.84,56.06,15.34,0,0,.04.2.04.2-9.76,2.79-20.34,2.32-29.96-.88-9.65-2.93-18.72-7.84-26.27-14.51,0,0,.13-.15.13-.15h0Z"/>
      <path class="cls-1" d="M1649.27,39.67c17.86-10.17,44.19-19.63,64.32-11.9,0,0-.05.19-.05.19-1.39-.18-2.74-.48-4.13-.59-9.58-1.15-19.28-.42-28.77,1.34-10.84,2.27-21.42,6.04-31.27,11.13,0,0-.1-.17-.1-.17h0Z"/>
    </g>
  </g>
</svg>