<?xml version="1.0" encoding="UTF-8"?>
<svg id="Layer_2" data-name="Layer 2" xmlns="http://www.w3.org/2000/svg" viewBox="0 0 97.83 501.1">
  <defs>
    <style>
      .cls-1 {
        fill: #fff;
      }

      .cls-2 {
        fill: #e42038;
      }
    </style>
  </defs>
  <g id="Contact">
    <g>
      <g>
        <path class="cls-2" d="M60.61,499.61c-.53,0-1.03-.28-1.3-.74-.47-.79-.26-1.17.75-3.01,14.19-25.88,20.25-52.59,17.53-77.26,0-.04,0-.08,0-.12-.97-32.88-4.33-46.91-6.55-56.19l-.18-.75c-13.57-1.67-51.99-9.29-49.63-41.62.6-8.3,4.2-10.05,7.12-10.05,9.12,0,25.19,18.33,38.54,35.96-4.36-16.1-9.15-30.57-13.81-44.63-11.86-35.78-23.06-69.58-22.89-119.87.07-18.56,1.24-36.67,3.48-53.84-11.75-9.2-44.8-39.17-26.98-73.3,2.73-5.24,5.54-7.79,8.57-7.79,8.23,0,15.49,20.49,21.59,60.94C47.29,51.91,69.42,10.86,94.31,1.6c.17-.06.35-.09.52-.09.48,0,.95.24,1.24.65.39.57.34,1.33-.12,1.85-24.5,27.41-53.11,89.86-53.11,175.68,0,30.63,6.59,59.89,14.21,87.18,1.5-13.25,3.68-29.81,6.49-44.33,5.77-29.88,10.78-33.71,14.5-33.71,2.99,0,5.58,2.93,8.17,9.22,16.23,39.47-13.66,74.72-24.31,85.57,15.29,51.56,46.52,157.67,6.94,206.6-2.54,3.13-4.27,5.35-5.42,6.82-1.97,2.52-2.01,2.57-2.81,2.58h0Z"/>
        <path class="cls-1" d="M94.83,3c-24.01,26.86-53.49,89.1-53.49,176.69,0,32.35,7.23,63.28,16.37,94.98,2.71-25.8,9.99-84.34,20.33-84.34,2.13,0,4.4,2.49,6.78,8.29,16.09,39.12-13.83,73.79-24.61,84.57,15.28,51.55,46.77,157.49,7.46,206.08-4.93,6.09-6.92,8.84-7.07,8.84-.54,0,23.27-36.27,18.48-79.67-1.04-35.2-4.81-48.96-7.01-58.27-12.29-1.37-51.68-8.27-49.35-40.14.45-6.15,2.53-8.66,5.62-8.66,10.31,0,31.9,27.79,41.96,41.57-15.74-62.13-38.86-99.16-38.61-171.6.08-19.49,1.35-37.71,3.58-54.5-10.58-8.13-44.94-38.06-27.25-71.95,2.54-4.88,4.96-6.98,7.24-6.98,10.72,0,18.36,46.4,21.45,69.01C46.93,53.03,71.2,11.8,94.83,3M94.83,0c-.35,0-.7.06-1.05.19-24.13,8.98-45.65,46.94-56.77,98.76-1.43-8.48-3.19-17.56-5.26-25.76-4.93-19.57-10.02-28.29-16.49-28.29-3.65,0-6.89,2.81-9.91,8.6-18.01,34.51,14.19,64.68,26.72,74.65-2.17,16.98-3.31,34.86-3.38,53.18-.17,50.54,11.07,84.45,22.97,120.35,3.93,11.85,7.95,23.99,11.72,37.14-15.94-20.22-27.7-30.45-35.03-30.45-2.91,0-7.89,1.49-8.62,11.44-2.4,32.83,35.17,41.11,49.91,43.08,2.21,9.22,5.49,23.2,6.45,55.63,0,.08,0,.16.02.24,2.69,24.36-3.31,50.77-17.35,76.37-1.02,1.85-1.63,2.97-.73,4.49.54.91,1.53,1.48,2.59,1.48,1.53,0,1.96-.54,4-3.15,1.14-1.46,2.87-3.68,5.4-6.8,9.49-11.73,15.61-27.5,18.2-46.86,2.17-16.25,1.9-35.48-.79-57.16-4.78-38.46-16.1-77.07-23.82-103.1,5.78-5.97,15.23-17.04,21.73-31.26,8.74-19.11,9.51-37.72,2.28-55.3-1.79-4.36-4.73-10.15-9.55-10.15-4.56,0-10.02,4.15-15.97,34.93-2.3,11.88-4.17,25.11-5.6,36.79-6.7-25.04-12.13-51.66-12.13-79.35,0-85.4,28.4-147.48,52.72-174.69.92-1.03,1.02-2.55.24-3.69-.57-.84-1.51-1.31-2.48-1.31h0Z"/>
      </g>
      <path class="cls-1" d="M67.65,355.27c-10.65-3.02-20.43-8.96-28.27-16.77-6.27-5.96-10.75-13.85-12.89-22.18,0,0,.19-.07.19-.07.61,1.07,1.15,2.16,1.73,3.24,3.87,7.43,8.8,14.48,14.77,20.38,6.94,6.72,15.37,12.03,24.53,15.22,0,0-.05.19-.05.19h0Z"/>
      <path class="cls-1" d="M33.23,118.49c-14.57-15.34-24.62-38.2-20.21-59.53.28-1.42.68-2.82,1.06-4.21,0,0,.2.04.2.04-2.59,24.68,3.66,44.76,18.96,63.7h0Z"/>
      <path class="cls-1" d="M62.41,273.77c11.59-20.46,18.91-44.44,15.61-68.06-.16-1.58-.57-3.11-.82-4.69,0,0,.19-.06.19-.06,4.8,12.08,3.93,25.62.55,37.95-1.65,6.2-3.79,12.25-6.36,18.09-2.61,5.83-5.56,11.51-9,16.87l-.17-.11h0Z"/>
    </g>
  </g>
</svg>